<svg id="Group_815" data-name="Group 815" xmlns="http://www.w3.org/2000/svg" width="367" height="235.261" viewBox="0 0 367 235.261">
  <ellipse id="Ellipse_5" data-name="Ellipse 5" cx="73.011" cy="13.573" rx="73.011" ry="13.573" transform="translate(207.248 208.114)" fill="#a9b4d1"/>
  <g id="Group_756" data-name="Group 756" transform="translate(265.574 18.845)" opacity="0.57">
    <g id="Group_744" data-name="Group 744" transform="translate(67.386 26.368)">
      <g id="Group_692" data-name="Group 692" transform="translate(7.591 14.274)">
        <path id="Path_341" data-name="Path 341" d="M134.827,253.757c0,.464.027.991.068,1.541.006.086.013.172.02.258.043.513.1,1.041.171,1.556.012.086.024.172.037.258.082.564.18,1.1.29,1.581q.031.134.063.261a5.1,5.1,0,0,0,.424,1.189,3.063,3.063,0,0,0,2.388,1.439,15.7,15.7,0,0,0,2.424.137c2.222,0,3.984-.1,4.819-1.557a5.2,5.2,0,0,0,.437-1.218c.022-.087.044-.176.065-.268.113-.486.213-1.036.3-1.608q.019-.131.038-.264c.072-.52.131-1.053.175-1.568.007-.088.014-.177.021-.264.043-.561.066-1.095.068-1.56q0-.136,0-.264a4.337,4.337,0,0,0-.132-1.19l-11.536-.022v0a4.741,4.741,0,0,0-.137,1.307Q134.826,253.626,134.827,253.757Z" transform="translate(-134.827 -251.307)" fill="#d3daed"/>
        <path id="Path_342" data-name="Path 342" d="M135.186,250.684v0c.006.321,1.028.6,2.656.756.855.082,1.878.13,3.008.132,3.289.006,5.871-.378,5.872-.869s-2.58-.9-5.868-.909c-1.067,0-2.038.039-2.864.112C136.273,250.062,135.187,250.353,135.186,250.684Z" transform="translate(-135.048 -249.798)" fill="#d3daed"/>
        <path id="Path_343" data-name="Path 343" d="M136.267,251.4c0-.211,2.05-.381,4.883-.375s5.129.181,5.129.391-2.3.377-5.13.372S136.267,251.614,136.267,251.4Z" transform="translate(-135.003 -250.573)" fill="#a9b4d1"/>
        <g id="Group_688" data-name="Group 688" transform="translate(0 2.099)">
          <path id="Path_344" data-name="Path 344" d="M134.827,255.82c1.757.245,4.155.533,5.7.578.139,0,.283.006.43.007a25.517,25.517,0,0,0,5.68-.672q0-.136,0-.264a23.672,23.672,0,0,1-6.1.678c-1.546-.045-3.954-.335-5.7-.58C134.827,255.649,134.826,255.733,134.827,255.82Z" transform="translate(-134.827 -255.469)" fill="#ededed"/>
        </g>
        <g id="Group_689" data-name="Group 689" transform="translate(0.069 3.923)">
          <path id="Path_345" data-name="Path 345" d="M135.012,260.466c.006.085.013.172.02.259,1.755.236,4.122.509,5.665.554.144,0,.293.007.446.007a26.465,26.465,0,0,0,3.848-.3c.616-.094,1.178-.2,1.671-.323.007-.088.014-.177.021-.264-.5.125-1.086.239-1.73.338a25.263,25.263,0,0,1-4.249.293C139.184,260.983,136.775,260.7,135.012,260.466Z" transform="translate(-135.012 -260.397)" fill="#ededed"/>
        </g>
        <g id="Group_690" data-name="Group 690" transform="translate(0.26 5.755)">
          <path id="Path_346" data-name="Path 346" d="M135.541,265.4q.018.129.037.258c1.714.216,3.921.453,5.353.494q.247.008.508.008a27.051,27.051,0,0,0,5.348-.547q.019-.131.038-.264c-.468.1-1,.2-1.58.282a27.129,27.129,0,0,1-4.307.27C139.492,265.857,137.254,265.616,135.541,265.4Z" transform="translate(-135.541 -265.347)" fill="#ededed"/>
        </g>
        <g id="Group_691" data-name="Group 691" transform="translate(0.587 7.627)">
          <path id="Path_347" data-name="Path 347" d="M136.448,270.423q.031.134.063.261c1.657.2,3.671.413,5.01.452.164,0,.334.007.508.008a27.53,27.53,0,0,0,4.975-.47c.022-.087.044-.176.065-.268-.379.076-.791.146-1.234.208a27.078,27.078,0,0,1-4.307.27C140.17,270.845,138.112,270.63,136.448,270.423Z" transform="translate(-136.448 -270.406)" fill="#ededed"/>
        </g>
      </g>
      <g id="Group_743" data-name="Group 743">
        <g id="Group_693" data-name="Group 693" transform="translate(14.743 7.256)">
          <path id="Path_348" data-name="Path 348" d="M125.885,238.422a7.83,7.83,0,0,1,2.773-5.6,6.811,6.811,0,0,1,4.115-1.772l.919.037v-.251l-.988,0c-2.625,0-6.858,2.664-7.07,7.576Z" transform="translate(-125.634 -230.835)" fill="#a9b4d1"/>
        </g>
        <g id="Group_694" data-name="Group 694" transform="translate(15.931 9.868)">
          <path id="Path_349" data-name="Path 349" d="M128.375,242.964h.252a5.751,5.751,0,0,1,.806-3.129,3.648,3.648,0,0,1,1.805-1.492,2.529,2.529,0,0,1,2.8.52l.191-.164a2.779,2.779,0,0,0-3.08-.593,3.9,3.9,0,0,0-1.93,1.592A6,6,0,0,0,128.375,242.964Z" transform="translate(-128.375 -237.895)" fill="#a9b4d1"/>
        </g>
        <g id="Group_695" data-name="Group 695" transform="translate(14.142 7.423)">
          <path id="Path_350" data-name="Path 350" d="M141.722,238.424a15,15,0,0,1,1.048-4.561,7.37,7.37,0,0,1,1.5-2.394l-.174-.182c-1.022.973-2.323,3.42-2.625,7.117Z" transform="translate(-141.471 -231.287)" fill="#a9b4d1"/>
        </g>
        <g id="Group_696" data-name="Group 696" transform="translate(13.204 3.973)">
          <path id="Path_351" data-name="Path 351" d="M149.647,232.835c.026-.417.058-.877.094-1.363.22-3.049.521-7.225-.494-9.506l-.23.1c.99,2.224.691,6.363.473,9.386-.035.487-.068.947-.094,1.366Z" transform="translate(-149.017 -221.966)" fill="#a9b4d1"/>
        </g>
        <g id="Group_697" data-name="Group 697" transform="translate(9.322 7.008)">
          <path id="Path_352" data-name="Path 352" d="M155.168,238.337l.252,0a25.043,25.043,0,0,0-.313-4.052,6.013,6.013,0,0,0-1.571-3.508,2.472,2.472,0,0,0-2.015-.584l.031.25a2.229,2.229,0,0,1,1.819.524C155.115,232.491,155.155,236.891,155.168,238.337Z" transform="translate(-151.52 -230.166)" fill="#a9b4d1"/>
        </g>
        <g id="Group_698" data-name="Group 698" transform="translate(5.11 5.65)">
          <path id="Path_353" data-name="Path 353" d="M160.3,236.008h.237a15.014,15.014,0,0,0-1.015-4.473,9.322,9.322,0,0,0-2.351-3.825c-1.178-.934-2.691-1.677-4.212-.868l.041.248c1.547-.853,2.846-.136,3.966.752a9.416,9.416,0,0,1,2.323,3.786A14.664,14.664,0,0,1,160.3,236.008Z" transform="translate(-152.961 -226.497)" fill="#a9b4d1"/>
        </g>
        <g id="Group_699" data-name="Group 699" transform="translate(4.148 10.402)">
          <path id="Path_354" data-name="Path 354" d="M162.9,244.042h.251a4.932,4.932,0,0,0-2.4-4.012,5.114,5.114,0,0,0-5.171.016l.116.224a5.533,5.533,0,0,1,2.715-.68,4.443,4.443,0,0,1,2.209.655,4.913,4.913,0,0,1,1.673,1.71A4.213,4.213,0,0,1,162.9,244.042Z" transform="translate(-155.578 -239.337)" fill="#a9b4d1"/>
        </g>
        <g id="Group_700" data-name="Group 700" transform="translate(7.912 11.875)">
          <path id="Path_355" data-name="Path 355" d="M158.256,246.6h.254a3.316,3.316,0,0,0-1.11-2.708,3.707,3.707,0,0,0-3.212-.4l.063.244a3.466,3.466,0,0,1,3,.357A3.072,3.072,0,0,1,158.256,246.6Z" transform="translate(-154.187 -243.316)" fill="#a9b4d1"/>
        </g>
        <g id="Group_705" data-name="Group 705" transform="translate(19.925 10.13)">
          <path id="Path_356" data-name="Path 356" d="M119.309,238.646c-.51.11-2.047,2.077-1.059,4.258a3.239,3.239,0,0,0,4.081,1.894c1.252-.6,1.775-2.6.864-4.258A4.013,4.013,0,0,0,119.309,238.646Z" transform="translate(-117.926 -238.603)" fill="#d3daed"/>
          <g id="Group_701" data-name="Group 701" transform="translate(2.345 0.905)">
            <path id="Path_357" data-name="Path 357" d="M121.329,243.595l.019-.14-3.053-1.195,1.828-1.107-.092-.105-2.046,1.238Z" transform="translate(-117.986 -241.048)" fill="#a9b4d1"/>
          </g>
          <g id="Group_702" data-name="Group 702" transform="translate(1.498 1.928)">
            <path id="Path_358" data-name="Path 358" d="M124.179,248.108l.124-.058-1.988-4.238-.982,3.848.127.059.893-3.5Z" transform="translate(-121.335 -243.811)" fill="#a9b4d1"/>
          </g>
          <g id="Group_703" data-name="Group 703" transform="translate(0.011 0.128)">
            <path id="Path_359" data-name="Path 359" d="M126.509,242.02l2.5-1.022,0-2.048h-.137l0,1.955-2.419.988Z" transform="translate(-126.457 -238.95)" fill="#a9b4d1"/>
          </g>
          <g id="Group_704" data-name="Group 704" transform="translate(0.383 1.071)">
            <rect id="Rectangle_716" data-name="Rectangle 716" width="2.312" height="0.137" transform="translate(2.086 1.121) rotate(-154.451)" fill="#a9b4d1"/>
          </g>
          <path id="Path_360" data-name="Path 360" d="M125.66,243.732a.368.368,0,1,0,.369-.367A.368.368,0,0,0,125.66,243.732Z" transform="translate(-123.529 -241.603)" fill="#a9b4d1"/>
        </g>
        <g id="Group_709" data-name="Group 709" transform="translate(15.569 4.71)">
          <path id="Path_361" data-name="Path 361" d="M133.856,227.656a2.489,2.489,0,0,1,.006-3.182,2.1,2.1,0,0,1,2.885.154c.657.553,1.5,2.124.4,3.034A2.91,2.91,0,0,1,133.856,227.656Z" transform="translate(-133.275 -223.957)" fill="#d3daed"/>
          <g id="Group_706" data-name="Group 706" transform="translate(1.588 2.169)">
            <path id="Path_362" data-name="Path 362" d="M135.17,231.8l.154-1.716,1.748,1.406.129-.072-1.99-1.6-.175,1.948Z" transform="translate(-135.035 -229.819)" fill="#a9b4d1"/>
          </g>
          <g id="Group_707" data-name="Group 707" transform="translate(1.722 0.43)">
            <path id="Path_363" data-name="Path 363" d="M133.55,227.077l2.581-.394-.057-.13-2.328.356.547-1.747-.131-.041Z" transform="translate(-133.55 -225.119)" fill="#a9b4d1"/>
          </g>
          <g id="Group_708" data-name="Group 708" transform="translate(0.169 0.996)">
            <path id="Path_364" data-name="Path 364" d="M139.928,228.618l1.743-.641-1.722-1.329-.05.135,1.491,1.151-1.51.555Z" transform="translate(-139.88 -226.648)" fill="#a9b4d1"/>
          </g>
          <path id="Path_365" data-name="Path 365" d="M139.226,229.528a.382.382,0,1,0,.383-.382A.383.383,0,0,0,139.226,229.528Z" transform="translate(-137.789 -227.226)" fill="#a9b7b6"/>
        </g>
        <g id="Group_714" data-name="Group 714" transform="translate(10.477)">
          <path id="Path_366" data-name="Path 366" d="M148.1,216.346a2.786,2.786,0,0,1-3.419-2.335c-.21-1.965.705-2.469,1.717-2.739a3.471,3.471,0,0,1,3.477,2.4A2.262,2.262,0,0,1,148.1,216.346Z" transform="translate(-144.653 -211.23)" fill="#d3daed"/>
          <g id="Group_710" data-name="Group 710" transform="translate(1.329 0.139)">
            <path id="Path_367" data-name="Path 367" d="M150.11,214.629l1.1-2.612-.126-.053-.978,2.32-1.2-2.678-.127.039Z" transform="translate(-148.782 -211.605)" fill="#a9b4d1"/>
          </g>
          <g id="Group_711" data-name="Group 711" transform="translate(2.55 2.904)">
            <path id="Path_368" data-name="Path 368" d="M145.634,221.313l.129-.048-.753-2.017,2.472.371-.006-.14-2.676-.4Z" transform="translate(-144.799 -219.078)" fill="#a9b4d1"/>
          </g>
          <g id="Group_712" data-name="Group 712" transform="translate(0.23 2.888)">
            <path id="Path_369" data-name="Path 369" d="M152.991,221.15l.985-2.117-2.548.64.084.12,2.218-.557-.864,1.856Z" transform="translate(-151.428 -219.033)" fill="#a9b4d1"/>
          </g>
          <g id="Group_713" data-name="Group 713" transform="translate(0.071 1.506)">
            <path id="Path_370" data-name="Path 370" d="M154.222,216.843l.066-.12L151.7,215.3l-.029.141Z" transform="translate(-151.672 -215.299)" fill="#a9b4d1"/>
          </g>
          <path id="Path_371" data-name="Path 371" d="M150.709,218.645a.389.389,0,1,0,.39-.389A.389.389,0,0,0,150.709,218.645Z" transform="translate(-148.443 -215.656)" fill="#a9b4d1"/>
        </g>
        <g id="Group_718" data-name="Group 718" transform="translate(5.113 6.159)">
          <path id="Path_372" data-name="Path 372" d="M164.369,228.422a2.327,2.327,0,0,1-1.174,3.37c-1.989.8-3.286-.237-3.559-.971a2.339,2.339,0,0,1,1.73-2.687A2.862,2.862,0,0,1,164.369,228.422Z" transform="translate(-159.562 -227.873)" fill="#d3daed"/>
          <g id="Group_715" data-name="Group 715" transform="translate(2.69 1.589)">
            <path id="Path_373" data-name="Path 373" d="M160.82,234.6l.376-2.182,1.43,1.137.085-.107-1.611-1.281-.416,2.411Z" transform="translate(-160.685 -232.167)" fill="#a9b4d1"/>
          </g>
          <g id="Group_716" data-name="Group 716" transform="translate(0.404 1.217)">
            <path id="Path_374" data-name="Path 374" d="M164.644,233.545l2.713-1.927-2.906-.456-.021.136,2.573.4-2.48,1.762Z" transform="translate(-164.429 -231.161)" fill="#a9b4d1"/>
          </g>
          <g id="Group_717" data-name="Group 717" transform="translate(2.137 0.104)">
            <path id="Path_375" data-name="Path 375" d="M161.328,229.864l1.714-1.209-.079-.112-1.594,1.124-.92-1.512-.117.071Z" transform="translate(-160.331 -228.155)" fill="#a9b4d1"/>
          </g>
          <path id="Path_376" data-name="Path 376" d="M163.968,231.95a.349.349,0,1,0,.31-.383A.349.349,0,0,0,163.968,231.95Z" transform="translate(-161.161 -230.199)" fill="#a9b7b6"/>
        </g>
        <g id="Group_722" data-name="Group 722" transform="translate(0.623 5.096)">
          <path id="Path_377" data-name="Path 377" d="M176.477,225.436c1.044.622.289,4.137-2.065,4.464a2.153,2.153,0,0,1-2.392-2.956C172.469,225.973,174.347,224.167,176.477,225.436Z" transform="translate(-171.869 -224.999)" fill="#d3daed"/>
          <g id="Group_719" data-name="Group 719" transform="translate(1.373 1.513)">
            <path id="Path_378" data-name="Path 378" d="M175.5,232.232l1.715-2.771.426,2.3.135-.025-.491-2.654-1.9,3.073Z" transform="translate(-175.384 -229.086)" fill="#a9b4d1"/>
          </g>
          <g id="Group_720" data-name="Group 720" transform="translate(0.272 0.612)">
            <path id="Path_379" data-name="Path 379" d="M176.372,228.729l3.1-.97-2.035-1.1-.125.088,1.809.982-2.793.873Z" transform="translate(-176.331 -226.654)" fill="#a9b4d1"/>
          </g>
          <g id="Group_721" data-name="Group 721" transform="translate(3.154 0.031)">
            <path id="Path_380" data-name="Path 380" d="M172.078,226.83l1.836-.184-.014-.137-1.649.165.334-1.562-.134-.029Z" transform="translate(-172.078 -225.084)" fill="#a9b4d1"/>
          </g>
          <path id="Path_381" data-name="Path 381" d="M175.857,228.994a.351.351,0,1,0,.352-.35A.351.351,0,0,0,175.857,228.994Z" transform="translate(-172.967 -227.295)" fill="#a9b4d1"/>
        </g>
        <g id="Group_726" data-name="Group 726" transform="translate(13.246 12.391)">
          <path id="Path_382" data-name="Path 382" d="M139.415,244.852A2.865,2.865,0,0,1,142.7,246.3a2.475,2.475,0,0,1-1.037,3.363A2.743,2.743,0,0,1,138,247.516,2.452,2.452,0,0,1,139.415,244.852Z" transform="translate(-137.952 -244.73)" fill="#d3daed"/>
          <g id="Group_723" data-name="Group 723" transform="translate(2.193 1.523)">
            <path id="Path_383" data-name="Path 383" d="M139.334,252.263l.126-.054-1.326-3.134,2.525.994.05-.128-2.829-1.113Z" transform="translate(-137.881 -248.828)" fill="#a9b4d1"/>
          </g>
          <g id="Group_724" data-name="Group 724" transform="translate(0.021 1.563)">
            <path id="Path_384" data-name="Path 384" d="M145.919,251.642l1.361-2.707-2.418.306.017.136,2.163-.273L145.8,251.58Z" transform="translate(-144.861 -248.935)" fill="#a9b4d1"/>
          </g>
          <g id="Group_725" data-name="Group 725" transform="translate(1.902)">
            <path id="Path_385" data-name="Path 385" d="M141.808,246.491l1.431-1.321-.093-.1-1.254,1.158-.326-1.515-.134.029Z" transform="translate(-141.431 -244.712)" fill="#a9b4d1"/>
          </g>
          <path id="Path_386" data-name="Path 386" d="M144.225,248.558a.355.355,0,1,0,.356-.354A.355.355,0,0,0,144.225,248.558Z" transform="translate(-142.26 -246.912)" fill="#a9b7b6"/>
        </g>
        <g id="Group_730" data-name="Group 730" transform="translate(5.018 11.422)">
          <path id="Path_387" data-name="Path 387" d="M165.061,242.457a2.588,2.588,0,0,1,.11,3.638A2.086,2.086,0,0,1,162,246.5a2.448,2.448,0,0,1-.4-2.944C162.417,242.2,164.2,241.755,165.061,242.457Z" transform="translate(-161.268 -242.115)" fill="#d3daed"/>
          <g id="Group_727" data-name="Group 727" transform="translate(1.61 1.69)">
            <path id="Path_388" data-name="Path 388" d="M163.206,249.906l.724-2.917,1.379,2,.081-.124-1.52-2.2-.8,3.213Z" transform="translate(-163.073 -246.661)" fill="#a9b4d1"/>
          </g>
          <g id="Group_728" data-name="Group 728" transform="translate(0.207 0.982)">
            <path id="Path_389" data-name="Path 389" d="M166.783,247.018l2.3-1.406-1.817-.865-.059.124,1.588.756-2.087,1.274Z" transform="translate(-166.712 -244.746)" fill="#a9b4d1"/>
          </g>
          <g id="Group_729" data-name="Group 729" transform="translate(2.351)">
            <path id="Path_390" data-name="Path 390" d="M162.016,244.041l1.968-.488-.033-.133-1.762.437.318-1.737-.135-.025Z" transform="translate(-162.016 -242.094)" fill="#a9b4d1"/>
          </g>
          <path id="Path_391" data-name="Path 391" d="M166.2,246.535a.334.334,0,1,0,.335-.333A.334.334,0,0,0,166.2,246.535Z" transform="translate(-164.095 -244.682)" fill="#a9b4d1"/>
        </g>
        <g id="Group_734" data-name="Group 734" transform="translate(0 10.181)">
          <path id="Path_392" data-name="Path 392" d="M178.73,239.282c.9.622.657,3.269-1.308,3.907a2.033,2.033,0,0,1-2.894-1.95C174.607,240.13,176.357,237.643,178.73,239.282Z" transform="translate(-174.523 -238.739)" fill="#d3daed"/>
          <g id="Group_731" data-name="Group 731" transform="translate(1.503 1.467)">
            <path id="Path_393" data-name="Path 393" d="M176.838,245.782l1.5-2.727.64,2.085.121-.074-.725-2.362-1.677,3.057Z" transform="translate(-176.693 -242.704)" fill="#a9b4d1"/>
          </g>
          <g id="Group_732" data-name="Group 732" transform="translate(0.028 0.222)">
            <path id="Path_394" data-name="Path 394" d="M178.366,241.991l3.258-1.2-1.424-1.449-.1.1,1.275,1.3-3,1.11Z" transform="translate(-178.366 -239.338)" fill="#a9b4d1"/>
          </g>
          <g id="Group_733" data-name="Group 733" transform="translate(3.064 0.247)">
            <path id="Path_395" data-name="Path 395" d="M176.134,241.079l.018-.136-1.456-.2.543-1.286-.126-.053-.613,1.452Z" transform="translate(-174.5 -239.406)" fill="#a9b4d1"/>
          </g>
          <path id="Path_396" data-name="Path 396" d="M177.779,242.6a.341.341,0,1,0,.341-.34A.341.341,0,0,0,177.779,242.6Z" transform="translate(-174.957 -240.955)" fill="#a9b7b6"/>
        </g>
        <g id="Group_738" data-name="Group 738" transform="translate(21.075 5.688)">
          <path id="Path_397" data-name="Path 397" d="M118.952,226.6c1.445,0,2.99,1.441,2.662,2.927s-1.558,1.879-2.881,1.435-2.3-2.066-2.132-2.582A2.482,2.482,0,0,1,118.952,226.6Z" transform="translate(-116.583 -226.599)" fill="#d3daed"/>
          <g id="Group_735" data-name="Group 735" transform="translate(2.084 2.03)">
            <path id="Path_398" data-name="Path 398" d="M119.086,234.425l.25-2.009,1.607,1.934.123-.066-1.828-2.2-.287,2.308Z" transform="translate(-118.952 -232.085)" fill="#a9b4d1"/>
          </g>
          <g id="Group_736" data-name="Group 736" transform="translate(2.346 0.005)">
            <path id="Path_399" data-name="Path 399" d="M116.928,228.886l2.6-.418-.047-.131-2.407.386.134-2.1-.137-.009Z" transform="translate(-116.928 -226.614)" fill="#a9b4d1"/>
          </g>
          <g id="Group_737" data-name="Group 737" transform="translate(0.449 0.89)">
            <path id="Path_400" data-name="Path 400" d="M123.447,231.2l2.045-.872L123.608,229l-.079.112,1.681,1.179-1.83.781Z" transform="translate(-123.38 -229.003)" fill="#a9b4d1"/>
          </g>
          <path id="Path_401" data-name="Path 401" d="M122.655,231.836a.409.409,0,1,0,.41-.408A.409.409,0,0,0,122.655,231.836Z" transform="translate(-120.644 -229.641)" fill="#a9b4d1"/>
        </g>
        <g id="Group_742" data-name="Group 742" transform="translate(9.91 8.714)">
          <path id="Path_402" data-name="Path 402" d="M153.683,236.527a2.431,2.431,0,0,1-2.1,2.891c-1.374-.017-1.947-1.032-1.8-2.283s1.4-2.409,1.89-2.359A2.24,2.24,0,0,1,153.683,236.527Z" transform="translate(-149.765 -234.775)" fill="#d3daed"/>
          <g id="Group_739" data-name="Group 739" transform="translate(0.028 2.127)">
            <path id="Path_403" data-name="Path 403" d="M154.728,240.818l1.821-.148-1.414,1.776.081.1,1.608-2.02-2.093.17Z" transform="translate(-154.728 -240.523)" fill="#a9b4d1"/>
          </g>
          <g id="Group_740" data-name="Group 740" transform="translate(1.901 1.861)">
            <path id="Path_404" data-name="Path 404" d="M149.786,240.092l.848,2.223.108-.066-.784-2.057,1.881-.268-.017-.123Z" transform="translate(-149.786 -239.803)" fill="#a9b4d1"/>
          </g>
          <g id="Group_741" data-name="Group 741" transform="translate(0.853 0.371)">
            <path id="Path_405" data-name="Path 405" d="M152.846,236.087l1.147,1.647.821-1.907-.114-.049-.733,1.7-1.026-1.474Z" transform="translate(-152.846 -235.777)" fill="#a9b4d1"/>
          </g>
          <path id="Path_406" data-name="Path 406" d="M154.4,239.731a.369.369,0,1,0,.436.287A.369.369,0,0,0,154.4,239.731Z" transform="translate(-152.485 -237.892)" fill="#a9b4d1"/>
        </g>
      </g>
    </g>
    <g id="Group_755" data-name="Group 755" transform="translate(0 0)">
      <g id="Group_746" data-name="Group 746" transform="translate(5.851 21.111)">
        <path id="Path_407" data-name="Path 407" d="M290.464,216.4a8.119,8.119,0,0,1,1.052-1.87A10.554,10.554,0,0,1,295.3,212a7.669,7.669,0,0,0,3.538-2.816,12.935,12.935,0,0,1-4.623,7.163,18.812,18.812,0,0,0-2.126,2.575,9.836,9.836,0,0,0-1.675,5.187c-.031.327-.142.2-.426.359a.748.748,0,0,1-.553.042c-1.557-.4-.738-2.414-.494-3.478A26.4,26.4,0,0,1,290.464,216.4Z" transform="translate(-274.781 -204.688)" fill="#d3daed"/>
        <path id="Path_408" data-name="Path 408" d="M324.7,213.946a3.614,3.614,0,0,0-2.051-1.538,1.763,1.763,0,0,1-.786-.2,3.239,3.239,0,0,1-.393-.462,2.065,2.065,0,0,0-.921-.464,11.866,11.866,0,0,1-2.84-1.357c.9,1.256,2.329,2.034,3.293,3.239.669.836,1.087,1.848,1.73,2.7a21.65,21.65,0,0,0,2.517,2.481,9.949,9.949,0,0,1,3.154,5.551.9.9,0,0,0,.126.407.845.845,0,0,0,.329.231c.5.241.99.49,1.491.722.641.3.726.212.494-.447-.338-.955-.748-1.892-1.173-2.81a39.98,39.98,0,0,0-3-5.361A30.472,30.472,0,0,0,324.7,213.946Z" transform="translate(-317.713 -205.153)" fill="#a9b4d1"/>
        <path id="Path_409" data-name="Path 409" d="M298.826,210.734a13.35,13.35,0,0,1,5.38-6.992c-.569.9-1.14,1.807-1.622,2.759a34.364,34.364,0,0,0-1.471,3.522,73.322,73.322,0,0,0-3.324,10.426c-1.392-.827-.473-3.265-.253-4.584A28.175,28.175,0,0,1,298.826,210.734Z" transform="translate(-283.303 -201.256)" fill="#a9b4d1"/>
        <path id="Path_410" data-name="Path 410" d="M320.224,211.181c.208-3.82.384-7.819-1.221-11.291-.423-.914-.97-1.964-.516-2.863-.723.609-.647,1.715-.873,2.632-.171.7-.543,1.324-.774,2a8.035,8.035,0,0,0-.353,1.81c-.444,4.485.826,8.943,2.083,13.271a4.692,4.692,0,0,0,1.325-.054c.223-.216.109-1.457.126-1.763Z" transform="translate(-306.618 -197.026)" fill="#a9b4d1"/>
        <path id="Path_411" data-name="Path 411" d="M306.251,213.45c.33-1.346,1.011-2.58,1.409-3.907a30.121,30.121,0,0,0,.744-5.174,9.362,9.362,0,0,1,1.709-4.874,18.189,18.189,0,0,0-4.432,4.224,10.747,10.747,0,0,0-2.09,5.695,17.727,17.727,0,0,0,.227,3.092q.319,2.414.639,4.829c.022.166,1.172.067,1.3-.024.311-.229.2-.59.205-.969A12.687,12.687,0,0,1,306.251,213.45Z" transform="translate(-291.634 -198.582)" fill="#d3daed"/>
        <path id="Path_412" data-name="Path 412" d="M323.1,209.4a93.713,93.713,0,0,0-5.27-8.268,17.964,17.964,0,0,1,1.241,5.291,17,17,0,0,0,.456,3.834,15.609,15.609,0,0,0,1.5,2.938,39.434,39.434,0,0,1,2.094,4.447.93.93,0,0,0,.751.7c.266.082,1.129.512,1.378.388.3-.149.184-.835.179-1.1a14.98,14.98,0,0,0-.346-2.9A20.854,20.854,0,0,0,323.1,209.4Z" transform="translate(-312.246 -199.61)" fill="#d3daed"/>
        <rect id="Rectangle_717" data-name="Rectangle 717" width="10.05" height="1.131" transform="translate(18.21 29.832) rotate(-179.889)" fill="#d3daed"/>
        <g id="Group_745" data-name="Group 745" transform="translate(11.916 12.284)">
          <path id="Path_413" data-name="Path 413" d="M318.959,236.363a13.243,13.243,0,0,0-1.043-5.7c-.067-.168-.125-.316-.171-.444l-.164.058c.046.13.105.28.173.45a13.084,13.084,0,0,1,1.03,5.633Z" transform="translate(-317.581 -230.217)" fill="#a9b4d1"/>
        </g>
        <path id="Path_414" data-name="Path 414" d="M303.283,256.791l9.891.019a.726.726,0,0,0,.607-.762l.02-10.488-11.251-.022s-.016,7.961-.02,10.615C302.528,256.584,302.808,256.79,303.283,256.791Z" transform="translate(-294.93 -227.585)" fill="#d3daed"/>
      </g>
      <g id="Group_751" data-name="Group 751">
        <g id="Group_747" data-name="Group 747" transform="translate(29.973)">
          <path id="Path_415" data-name="Path 415" d="M217.306,158.113l-10.4-18.09-20.867-.04-10.468,18.05,10.4,18.091,20.867.04Zm-39.071-.076,9.133-15.747,18.2.035,9.072,15.783-9.133,15.749-18.2-.035Z" transform="translate(-175.572 -139.982)" fill="#a9b4d1"/>
        </g>
        <g id="Group_748" data-name="Group 748" transform="translate(59.693 16.976)">
          <path id="Path_416" data-name="Path 416" d="M137,203.983l-10.4-18.09-20.867-.04L95.268,203.9l10.4,18.092,20.867.04Zm-39.071-.075,9.133-15.748,18.2.035,9.072,15.783-9.133,15.749-18.2-.035Z" transform="translate(-95.268 -185.852)" fill="#a9b4d1"/>
        </g>
        <g id="Group_749" data-name="Group 749" transform="translate(0 16.86)">
          <path id="Path_417" data-name="Path 417" d="M266.96,221.682l20.867.04L298.3,203.671l-10.4-18.09-20.867-.04-10.468,18.05Zm19.54-2.267-18.2-.035L259.224,203.6l9.133-15.747,18.2.035,9.072,15.783Z" transform="translate(-256.562 -185.54)" fill="#a9b4d1"/>
        </g>
        <g id="Group_750" data-name="Group 750" transform="translate(31.302 16.9)">
          <rect id="Rectangle_718" data-name="Rectangle 718" width="39.071" height="2.305" transform="translate(39.071 2.381) rotate(-179.889)" fill="#a9b4d1"/>
        </g>
      </g>
      <path id="Path_418" data-name="Path 418" d="M230.56,207.061a21.426,21.426,0,0,1-1.191,3.221l-6.084-.012a21.8,21.8,0,0,1-1.176-3.225,5.3,5.3,0,0,1,.8-5.424c.635-.755,1.942-1.7,1.93-2.194-.016-.688,0-1.584,0-1.584l3.018.006s.013.9,0,1.584c-.013.491,1.289,1.444,1.919,2.2A5.289,5.289,0,0,1,230.56,207.061Z" transform="translate(-176.322 -176.429)" fill="#d3daed"/>
      <g id="Group_754" data-name="Group 754" transform="translate(44.745 4.074)">
        <g id="Group_752" data-name="Group 752">
          <rect id="Rectangle_719" data-name="Rectangle 719" width="10.769" height="12.447" transform="translate(0.245 0.221) rotate(0.111)" fill="#fff"/>
          <path id="Path_419" data-name="Path 419" d="M229.3,151.012l-11.21-.022-.025,12.888,11.21.021Zm-10.77.42,10.328.02-.023,12.006-10.328-.02Z" transform="translate(-218.068 -150.99)" fill="#a9b4d1"/>
        </g>
        <g id="Group_753" data-name="Group 753" transform="translate(1.747 1.635)">
          <path id="Path_420" data-name="Path 420" d="M231.849,158.068a3.4,3.4,0,0,0,1.722,2.109,1.807,1.807,0,0,0,2.366-.834,2.278,2.278,0,0,0,.118-.645,3.259,3.259,0,0,0-.752-2.513,3.216,3.216,0,0,0-2.669-.747C231.235,155.6,231.512,157.089,231.849,158.068Z" transform="translate(-231.576 -155.407)" fill="#a9b4d1"/>
          <path id="Path_421" data-name="Path 421" d="M234.052,172.892a2.283,2.283,0,0,0,1.927,1.421,1.141,1.141,0,0,0,.992-.348c.311-.4.148-.973.178-1.479a5.047,5.047,0,0,0,.088-1.052,1.882,1.882,0,0,0-1.115-1.227C234.434,169.319,233.5,171.474,234.052,172.892Z" transform="translate(-233.621 -164.599)" fill="#c8cee0"/>
          <path id="Path_422" data-name="Path 422" d="M223.924,167.976a2.335,2.335,0,0,0,1.538-.673c1.077-.965,2.283-5.482-.447-4.438C223.637,163.392,221.2,167.937,223.924,167.976Z" transform="translate(-218.903 -160.007)" fill="#d3daed"/>
        </g>
      </g>
    </g>
  </g>
  <g id="Group_758" data-name="Group 758" transform="translate(7.823 25.472)" opacity="0.74">
    <g id="Group_757" data-name="Group 757" transform="translate(0 0)">
      <path id="Path_423" data-name="Path 423" d="M959.343,197.793h39.394v-39.9H959.343Zm38.843-.551H959.894v-38.8h38.291Z" transform="translate(-959.343 -157.891)" fill="#d3daed"/>
    </g>
    <rect id="Rectangle_720" data-name="Rectangle 720" width="34.42" height="34.42" transform="translate(2.388 2.741)" fill="#d3daed"/>
    <ellipse id="Ellipse_6" data-name="Ellipse 6" cx="6.771" cy="6.771" rx="6.771" ry="6.771" transform="translate(16.55 7.265)" fill="#a9b4d1"/>
    <path id="Path_424" data-name="Path 424" d="M966.332,231.131a9.877,9.877,0,0,1,6.514-2.671c4.361-.272,5.76,3.515,11.566,3.732,5.107.191,6.812-5.253,11.561-5.252a5.7,5.7,0,0,1,4.78,3.138v8.468h-34.42Z" transform="translate(-963.944 -201.387)" fill="#a9b4d1"/>
  </g>
  <g id="Group_766" data-name="Group 766" transform="translate(49.289 17.694)">
    <rect id="Rectangle_721" data-name="Rectangle 721" width="212.571" height="134.257" rx="26.569" transform="translate(24.654)" fill="#4c5a7d"/>
    <path id="Path_425" data-name="Path 425" d="M482.421,498.9l23.916,33.364a3.442,3.442,0,0,1-2.8,5.448H247.61a3.1,3.1,0,0,1-2.547-4.853l23.418-33.925a2.293,2.293,0,0,1,1.887-.991h210.19A2.292,2.292,0,0,1,482.421,498.9Z" transform="translate(-244.51 -364.317)" fill="#d9e4ff"/>
    <path id="Path_426" data-name="Path 426" d="M291.068,524.509H515.934a2.643,2.643,0,0,0,2.181-4.135l-10.705-15.642a1.36,1.36,0,0,0-1.122-.592H302.473a1.463,1.463,0,0,0-1.174.591l-12.032,16.2A2.244,2.244,0,0,0,291.068,524.509Z" transform="translate(-272.501 -368.22)" fill="#b9c8ed"/>
    <path id="Path_427" data-name="Path 427" d="M333.318,508.945l.852,1.537a.2.2,0,0,0,.171.1h8.32a.2.2,0,0,0,.168-.3l-.9-1.525a.2.2,0,0,0-.168-.1l-8.266-.012A.2.2,0,0,0,333.318,508.945Z" transform="translate(-113.236 -371.063)" fill="#323b52"/>
    <path id="Path_428" data-name="Path 428" d="M337.54,514.771l.868,1.463a.194.194,0,0,1-.167.293h-7.327a.194.194,0,0,1-.166-.094l-.88-1.463a.194.194,0,0,1,.166-.294h7.339A.194.194,0,0,1,337.54,514.771Z" transform="translate(-107.537 -374.856)" fill="#323b52"/>
    <path id="Path_429" data-name="Path 429" d="M367.36,514.788l.753,1.432a.209.209,0,0,1-.185.306h-9.78a.209.209,0,0,1-.188-.118l-.695-1.433a.209.209,0,0,1,.188-.3h9.721A.208.208,0,0,1,367.36,514.788Z" transform="translate(-147.38 -374.856)" fill="#323b52"/>
    <path id="Path_430" data-name="Path 430" d="M339.015,521.037l1.222,2.058a.227.227,0,0,1-.2.343H326.52a.226.226,0,0,1-.2-.116l-1.155-2.058a.227.227,0,0,1,.2-.339H338.82A.227.227,0,0,1,339.015,521.037Z" transform="translate(-107.63 -378.793)" fill="#323b52"/>
    <path id="Path_431" data-name="Path 431" d="M337.37,528.943l1.076,1.813a.321.321,0,0,1-.276.485H322.087a.321.321,0,0,1-.281-.165l-1.01-1.813a.321.321,0,0,1,.28-.477h16.018A.321.321,0,0,1,337.37,528.943Z" transform="translate(-104.231 -383.744)" fill="#323b52"/>
    <path id="Path_432" data-name="Path 432" d="M338.089,537.421H315.462a.359.359,0,0,0-.329.5l.926,2.109a.359.359,0,0,0,.329.215l22.957.006a.359.359,0,0,0,.309-.542L338.4,537.6A.358.358,0,0,0,338.089,537.421Z" transform="translate(-103.351 -389.184)" fill="#323b52"/>
    <path id="Path_433" data-name="Path 433" d="M320.144,546.79l1.475,2.485a.4.4,0,0,1-.347.61H310.744a.4.4,0,0,1-.356-.214l-1.326-2.485a.4.4,0,0,1,.356-.594H319.8A.4.4,0,0,1,320.144,546.79Z" transform="translate(-83.07 -394.961)" fill="#323b52"/>
    <path id="Path_434" data-name="Path 434" d="M375.012,508.76l.736,1.513a.21.21,0,0,1-.189.3h-8.816a.21.21,0,0,1-.2-.131l-.613-1.508a.21.21,0,0,1,.195-.289l8.693,0A.211.211,0,0,1,375.012,508.76Z" transform="translate(-158.223 -371.055)" fill="#323b52"/>
    <path id="Path_435" data-name="Path 435" d="M407.156,508.889l.506,1.131a.4.4,0,0,1-.365.562h-8.32a.4.4,0,0,1-.375-.262l-.414-1.13a.4.4,0,0,1,.375-.537h8.228A.4.4,0,0,1,407.156,508.889Z" transform="translate(-202.084 -371.062)" fill="#323b52"/>
    <path id="Path_436" data-name="Path 436" d="M400.966,514.906l.474,1.081a.385.385,0,0,1-.353.54h-9.906a.385.385,0,0,1-.365-.261l-.366-1.081a.385.385,0,0,1,.365-.508h9.8A.385.385,0,0,1,400.966,514.906Z" transform="translate(-192.998 -374.856)" fill="#323b52"/>
    <path id="Path_437" data-name="Path 437" d="M380.169,521.149l.889,1.675a.419.419,0,0,1-.37.615h-9.5a.419.419,0,0,1-.384-.251l-.732-1.675a.419.419,0,0,1,.384-.587H379.8A.419.419,0,0,1,380.169,521.149Z" transform="translate(-165.084 -378.793)" fill="#323b52"/>
    <path id="Path_438" data-name="Path 438" d="M385.134,529.008l.82,1.656a.4.4,0,0,1-.358.577h-9.317a.4.4,0,0,1-.373-.256l-.635-1.656a.4.4,0,0,1,.373-.542h9.132A.4.4,0,0,1,385.134,529.008Z" transform="translate(-171.901 -383.744)" fill="#323b52"/>
    <path id="Path_439" data-name="Path 439" d="M398.687,537.665l.913,2a.417.417,0,0,1-.379.59h-9.225a.418.418,0,0,1-.387-.262l-.8-2a.417.417,0,0,1,.387-.573h9.115A.417.417,0,0,1,398.687,537.665Z" transform="translate(-190.55 -389.184)" fill="#323b52"/>
    <path id="Path_440" data-name="Path 440" d="M356.891,546.842l1.176,2.455a.416.416,0,0,1-.375.6h-9.416a.416.416,0,0,1-.381-.249l-1-2.279a.416.416,0,0,1,.373-.583l9.241-.177A.415.415,0,0,1,356.891,546.842Z" transform="translate(-133.507 -394.969)" fill="#323b52"/>
    <path id="Path_441" data-name="Path 441" d="M394.41,546.834l1.107,2.472a.41.41,0,0,1-.374.578h-9.61a.409.409,0,0,1-.389-.282l-.816-2.472a.41.41,0,0,1,.39-.538h9.319A.41.41,0,0,1,394.41,546.834Z" transform="translate(-184.811 -394.961)" fill="#323b52"/>
    <path id="Path_442" data-name="Path 442" d="M434.95,537.659l.822,2.079a.377.377,0,0,1-.351.516h-9.816a.377.377,0,0,1-.365-.281l-.548-2.079a.377.377,0,0,1,.365-.473H434.6A.377.377,0,0,1,434.95,537.659Z" transform="translate(-239.999 -389.184)" fill="#323b52"/>
    <path id="Path_443" data-name="Path 443" d="M431.916,546.9l.751,2.426a.433.433,0,0,1-.414.561h-10a.433.433,0,0,1-.417-.314l-.692-2.426a.433.433,0,0,1,.417-.552H431.5A.433.433,0,0,1,431.916,546.9Z" transform="translate(-235.573 -394.961)" fill="#323b52"/>
    <path id="Path_444" data-name="Path 444" d="M535.2,546.923l.557,2.442a.425.425,0,0,1-.415.52H458.852a.425.425,0,0,1-.416-.515l.529-2.442a.426.426,0,0,1,.416-.335h75.4A.425.425,0,0,1,535.2,546.923Z" transform="translate(-352.457 -394.961)" fill="#323b52"/>
    <path id="Path_445" data-name="Path 445" d="M471.217,537.732l.527,2a.417.417,0,0,1-.4.524H461.322a.417.417,0,0,1-.409-.334l-.406-2a.417.417,0,0,1,.409-.5h9.9A.417.417,0,0,1,471.217,537.732Z" transform="translate(-289.214 -389.184)" fill="#323b52"/>
    <path id="Path_446" data-name="Path 446" d="M506.547,537.629l.5,2.306a.264.264,0,0,1-.258.319h-9.84a.264.264,0,0,1-.26-.22l-.387-2.306a.264.264,0,0,1,.26-.307h9.729A.264.264,0,0,1,506.547,537.629Z" transform="translate(-337.754 -389.184)" fill="#323b52"/>
    <path id="Path_447" data-name="Path 447" d="M542.9,537.652l.3,2.3a.265.265,0,0,1-.263.3H532.62a.265.265,0,0,1-.265-.246l-.165-2.3a.265.265,0,0,1,.265-.284h10.177A.265.265,0,0,1,542.9,537.652Z" transform="translate(-387.189 -389.184)" fill="#323b52"/>
    <path id="Path_448" data-name="Path 448" d="M578.668,537.644l.2,2.347a.243.243,0,0,1-.242.263H568.444A.243.243,0,0,1,568.2,540l.084-2.347a.243.243,0,0,1,.243-.234h9.9A.243.243,0,0,1,578.668,537.644Z" transform="translate(-436.181 -389.184)" fill="#323b52"/>
    <path id="Path_449" data-name="Path 449" d="M614.723,537.772l-.21,2.192a.32.32,0,0,1-.319.29h-9.864a.32.32,0,0,1-.317-.366l.315-2.192a.321.321,0,0,1,.318-.275H614.4A.321.321,0,0,1,614.723,537.772Z" transform="translate(-485.292 -389.184)" fill="#323b52"/>
    <path id="Path_450" data-name="Path 450" d="M650.861,537.8l-.258,2.153a.34.34,0,0,1-.338.3H640.158a.34.34,0,0,1-.332-.411l.465-2.153a.34.34,0,0,1,.332-.268h9.9A.34.34,0,0,1,650.861,537.8Z" transform="translate(-534.683 -389.184)" fill="#323b52"/>
    <path id="Path_451" data-name="Path 451" d="M686.755,537.753l-.579,2.3a.266.266,0,0,1-.258.2H675.95a.267.267,0,0,1-.257-.337l.634-2.3a.266.266,0,0,1,.257-.2H686.5A.266.266,0,0,1,686.755,537.753Z" transform="translate(-583.856 -389.184)" fill="#323b52"/>
    <path id="Path_452" data-name="Path 452" d="M722.505,537.855l-.647,2.159a.337.337,0,0,1-.323.24h-9.9a.337.337,0,0,1-.319-.448l.75-2.159a.338.338,0,0,1,.319-.226h9.8A.337.337,0,0,1,722.505,537.855Z" transform="translate(-632.793 -389.184)" fill="#323b52"/>
    <path id="Path_453" data-name="Path 453" d="M756.653,537.832l-.686,2.2a.316.316,0,0,1-.3.222h-8.555a.316.316,0,0,1-.291-.442l.949-2.2a.317.317,0,0,1,.291-.191h8.291A.317.317,0,0,1,756.653,537.832Z" transform="translate(-680.078 -389.184)" fill="#323b52"/>
    <path id="Path_454" data-name="Path 454" d="M802.783,537.988l-.952,2.037a.4.4,0,0,1-.361.229H778.508a.4.4,0,0,1-.354-.58l1.05-2.037a.4.4,0,0,1,.354-.216h22.865A.4.4,0,0,1,802.783,537.988Z" transform="translate(-737.82 -389.184)" fill="#323b52"/>
    <path id="Path_455" data-name="Path 455" d="M861.969,537.246l-1.385,2.609a.2.2,0,0,1-.175.105H849.332a.2.2,0,0,1-.164-.309l1.77-2.609a.2.2,0,0,1,.164-.087h10.692A.2.2,0,0,1,861.969,537.246Z" transform="translate(-823.277 -388.89)" fill="#323b52"/>
    <path id="Path_456" data-name="Path 456" d="M421.008,529.047l.617,1.653a.4.4,0,0,1-.376.541h-9.268a.4.4,0,0,1-.372-.252l-.663-1.653a.4.4,0,0,1,.372-.55h9.314A.4.4,0,0,1,421.008,529.047Z" transform="translate(-220.758 -383.744)" fill="#323b52"/>
    <path id="Path_457" data-name="Path 457" d="M415.414,521.192l.619,1.706a.4.4,0,0,1-.379.541h-9.471a.4.4,0,0,1-.385-.284l-.53-1.706a.4.4,0,0,1,.385-.523h9.382A.4.4,0,0,1,415.414,521.192Z" transform="translate(-213.066 -378.793)" fill="#323b52"/>
    <path id="Path_458" data-name="Path 458" d="M450.623,521.244l.443,1.655a.429.429,0,0,1-.415.54h-8.963a.429.429,0,0,1-.413-.312l-.469-1.655a.429.429,0,0,1,.413-.546h8.989A.429.429,0,0,1,450.623,521.244Z" transform="translate(-261.243 -378.793)" fill="#323b52"/>
    <path id="Path_459" data-name="Path 459" d="M455.426,529.034l.632,1.694a.381.381,0,0,1-.356.514H445.547a.381.381,0,0,1-.369-.289l-.422-1.694a.38.38,0,0,1,.369-.473h9.944A.381.381,0,0,1,455.426,529.034Z" transform="translate(-267.709 -383.744)" fill="#323b52"/>
    <path id="Path_460" data-name="Path 460" d="M491.522,529.129l.331,1.594a.431.431,0,0,1-.422.518h-9.782a.43.43,0,0,1-.421-.343L480.9,529.3a.43.43,0,0,1,.422-.518H491.1A.43.43,0,0,1,491.522,529.129Z" transform="translate(-316.863 -383.744)" fill="#323b52"/>
    <path id="Path_461" data-name="Path 461" d="M484.877,521.272l.391,1.606a.453.453,0,0,1-.44.56h-9.083a.453.453,0,0,1-.44-.346l-.391-1.606a.453.453,0,0,1,.44-.56h9.083A.453.453,0,0,1,484.877,521.272Z" transform="translate(-308.067 -378.793)" fill="#323b52"/>
    <path id="Path_462" data-name="Path 462" d="M519.571,521.152l.37,1.957a.277.277,0,0,1-.273.329H510.35a.277.277,0,0,1-.272-.222l-.4-1.958a.278.278,0,0,1,.272-.333H519.3A.278.278,0,0,1,519.571,521.152Z" transform="translate(-355.602 -378.793)" fill="#323b52"/>
    <path id="Path_463" data-name="Path 463" d="M526.823,528.978l.337,1.994a.23.23,0,0,1-.227.269h-9.852a.231.231,0,0,1-.227-.193l-.331-1.994a.23.23,0,0,1,.227-.268H526.6A.23.23,0,0,1,526.823,528.978Z" transform="translate(-365.352 -383.744)" fill="#323b52"/>
    <path id="Path_464" data-name="Path 464" d="M560.49,529.02l.265,1.912a.272.272,0,0,1-.269.309H550.278a.272.272,0,0,1-.271-.253l-.132-1.911a.272.272,0,0,1,.271-.291h10.075A.272.272,0,0,1,560.49,529.02Z" transform="translate(-411.291 -383.744)" fill="#323b52"/>
    <path id="Path_465" data-name="Path 465" d="M553.686,521.022l.4,2.281a.116.116,0,0,1-.114.136H543.764a.116.116,0,0,1-.116-.11l-.123-2.281a.116.116,0,0,1,.115-.122h9.932A.116.116,0,0,1,553.686,521.022Z" transform="translate(-402.272 -378.793)" fill="#323b52"/>
    <path id="Path_466" data-name="Path 466" d="M596.528,529.073l.09,1.851a.3.3,0,0,1-.3.317h-8.67a.3.3,0,0,1-.3-.324l.135-1.852a.3.3,0,0,1,.3-.28h8.444A.3.3,0,0,1,596.528,529.073Z" transform="translate(-461.019 -383.744)" fill="#323b52"/>
    <path id="Path_467" data-name="Path 467" d="M631.7,529.538l-.138,1.751a.266.266,0,0,1-.265.245h-9.365a.266.266,0,0,1-.264-.3l.207-1.751a.266.266,0,0,1,.264-.235h9.3A.266.266,0,0,1,631.7,529.538Z" transform="translate(-508.802 -384.038)" fill="#323b52"/>
    <path id="Path_468" data-name="Path 468" d="M665.939,530.138l-.178,1.392a.356.356,0,0,1-.353.311h-9.013a.356.356,0,0,1-.353-.4l.166-1.392a.355.355,0,0,1,.353-.313h9.026A.356.356,0,0,1,665.939,530.138Z" transform="translate(-555.765 -384.344)" fill="#323b52"/>
    <path id="Path_469" data-name="Path 469" d="M702.7,529.747l-.245,1.563a.273.273,0,0,1-.27.231h-9.643a.273.273,0,0,1-.262-.349l.5-1.733a.273.273,0,0,1,.267-.2l9.388.17A.273.273,0,0,1,702.7,529.747Z" transform="translate(-605.941 -384.044)" fill="#323b52"/>
    <path id="Path_470" data-name="Path 470" d="M737.962,529.642l-.459,1.667a.308.308,0,0,1-.3.226h-9.618a.308.308,0,0,1-.288-.418l.634-1.667a.308.308,0,0,1,.288-.2h9.443A.308.308,0,0,1,737.962,529.642Z" transform="translate(-654.162 -384.038)" fill="#323b52"/>
    <path id="Path_471" data-name="Path 471" d="M770.96,529.614l-.665,1.749a.267.267,0,0,1-.249.172h-8.537a.267.267,0,0,1-.243-.375l.78-1.749a.267.267,0,0,1,.244-.158h8.422A.267.267,0,0,1,770.96,529.614Z" transform="translate(-699.735 -384.038)" fill="#323b52"/>
    <path id="Path_472" data-name="Path 472" d="M807.724,529.627l-.756,1.746a.268.268,0,0,1-.246.162H789.313a.269.269,0,0,1-.239-.391l.893-1.746a.268.268,0,0,1,.239-.146h17.272A.268.268,0,0,1,807.724,529.627Z" transform="translate(-746.793 -384.038)" fill="#323b52"/>
    <path id="Path_473" data-name="Path 473" d="M857.079,529.446l-1,2.015a.134.134,0,0,1-.12.074H845.249a.134.134,0,0,1-.111-.209l1.367-2.015a.133.133,0,0,1,.111-.058h10.343A.134.134,0,0,1,857.079,529.446Z" transform="translate(-816.89 -384.038)" fill="#323b52"/>
    <path id="Path_474" data-name="Path 474" d="M588.8,521.043l.121,2.265a.124.124,0,0,1-.124.13h-9.686a.124.124,0,0,1-.124-.124V521.05a.124.124,0,0,1,.124-.124h9.564A.124.124,0,0,1,588.8,521.043Z" transform="translate(-450.232 -378.793)" fill="#323b52"/>
    <path id="Path_475" data-name="Path 475" d="M623.243,521.2v1.958a.277.277,0,0,1-.278.277h-9.657a.277.277,0,0,1-.276-.3l.187-1.958a.277.277,0,0,1,.276-.251h9.47A.278.278,0,0,1,623.243,521.2Z" transform="translate(-497.15 -378.793)" fill="#323b52"/>
    <path id="Path_476" data-name="Path 476" d="M657.547,521.071l-.181,2.243a.135.135,0,0,1-.134.124h-10.04a.134.134,0,0,1-.132-.16l.426-2.243a.135.135,0,0,1,.132-.109h9.8A.134.134,0,0,1,657.547,521.071Z" transform="translate(-544.047 -378.793)" fill="#323b52"/>
    <path id="Path_477" data-name="Path 477" d="M691.945,521.119l-.368,2.182a.165.165,0,0,1-.163.137H681a.165.165,0,0,1-.16-.2l.54-2.182a.165.165,0,0,1,.16-.125h10.241A.165.165,0,0,1,691.945,521.119Z" transform="translate(-590.947 -378.793)" fill="#323b52"/>
    <path id="Path_478" data-name="Path 478" d="M726.719,521.161l-.587,2.141a.186.186,0,0,1-.179.137h-9.837a.186.186,0,0,1-.176-.247l.739-2.14a.186.186,0,0,1,.176-.125h9.683A.186.186,0,0,1,726.719,521.161Z" transform="translate(-638.715 -378.793)" fill="#323b52"/>
    <path id="Path_479" data-name="Path 479" d="M761.307,521.286l-.681,1.969a.271.271,0,0,1-.257.183h-9.806a.271.271,0,0,1-.255-.366l.731-1.969a.272.272,0,0,1,.255-.177h9.755A.272.272,0,0,1,761.307,521.286Z" transform="translate(-686.026 -378.793)" fill="#323b52"/>
    <path id="Path_480" data-name="Path 480" d="M803.8,521.242l-.935,2.065a.223.223,0,0,1-.2.131H785.421a.224.224,0,0,1-.2-.329l1.108-2.065a.224.224,0,0,1,.2-.118h17.064A.224.224,0,0,1,803.8,521.242Z" transform="translate(-741.44 -378.793)" fill="#323b52"/>
    <path id="Path_481" data-name="Path 481" d="M852.386,521.216l-1.084,2.115a.2.2,0,0,1-.177.108H841.064a.2.2,0,0,1-.161-.316l1.542-2.115a.2.2,0,0,1,.161-.082h9.6A.2.2,0,0,1,852.386,521.216Z" transform="translate(-810.633 -378.793)" fill="#323b52"/>
    <path id="Path_482" data-name="Path 482" d="M436.034,514.948l.356,1.047a.4.4,0,0,1-.38.531h-8.584a.4.4,0,0,1-.38-.271l-.362-1.047a.4.4,0,0,1,.38-.533h8.59A.4.4,0,0,1,436.034,514.948Z" transform="translate(-241.344 -374.856)" fill="#323b52"/>
    <path id="Path_483" data-name="Path 483" d="M468.595,514.766l.452,1.6a.123.123,0,0,1-.119.157h-9.5a.123.123,0,0,1-.119-.091l-.441-1.6a.123.123,0,0,1,.119-.156h9.492A.124.124,0,0,1,468.595,514.766Z" transform="translate(-285.902 -374.856)" fill="#323b52"/>
    <path id="Path_484" data-name="Path 484" d="M499.7,514.756l.442,1.635a.108.108,0,0,1-.1.136h-9.721a.108.108,0,0,1-.106-.088l-.314-1.634a.108.108,0,0,1,.106-.128h9.592A.108.108,0,0,1,499.7,514.756Z" transform="translate(-328.475 -374.856)" fill="#323b52"/>
    <path id="Path_485" data-name="Path 485" d="M536.518,514.768l.29,1.628a.111.111,0,0,1-.11.131h-9.525a.111.111,0,0,1-.111-.1l-.132-1.628a.112.112,0,0,1,.111-.12h9.367A.111.111,0,0,1,536.518,514.768Z" transform="translate(-378.851 -374.856)" fill="#323b52"/>
    <path id="Path_486" data-name="Path 486" d="M571.623,514.775l.18,1.629a.111.111,0,0,1-.11.123h-9.551a.111.111,0,0,1-.111-.111v-1.629a.111.111,0,0,1,.111-.111h9.371A.111.111,0,0,1,571.623,514.775Z" transform="translate(-426.836 -374.856)" fill="#323b52"/>
    <path id="Path_487" data-name="Path 487" d="M606.82,514.8v1.608a.121.121,0,0,1-.121.121h-9.08a.121.121,0,0,1-.12-.139l.234-1.608a.121.121,0,0,1,.12-.1H606.7A.121.121,0,0,1,606.82,514.8Z" transform="translate(-474.978 -374.856)" fill="#323b52"/>
    <path id="Path_488" data-name="Path 488" d="M641.048,514.812l-.182,1.606a.122.122,0,0,1-.121.108h-8.459a.122.122,0,0,1-.121-.142l.26-1.605a.123.123,0,0,1,.121-.1h8.381A.123.123,0,0,1,641.048,514.812Z" transform="translate(-522.036 -374.856)" fill="#323b52"/>
    <path id="Path_489" data-name="Path 489" d="M673.661,514.877l-.218,1.5a.176.176,0,0,1-.174.151h-9.344a.176.176,0,0,1-.171-.216l.354-1.5a.176.176,0,0,1,.171-.135h9.208A.176.176,0,0,1,673.661,514.877Z" transform="translate(-566.34 -374.856)" fill="#323b52"/>
    <path id="Path_490" data-name="Path 490" d="M707.23,514.933l-.324,1.43a.211.211,0,0,1-.205.164h-9.342a.21.21,0,0,1-.2-.269l.416-1.43a.21.21,0,0,1,.2-.151h9.25A.21.21,0,0,1,707.23,514.933Z" transform="translate(-612.273 -374.856)" fill="#323b52"/>
    <path id="Path_491" data-name="Path 491" d="M741.079,514.937l-.335,1.426a.212.212,0,0,1-.207.164H730.9a.212.212,0,0,1-.2-.292l.577-1.426a.212.212,0,0,1,.2-.132h9.395A.212.212,0,0,1,741.079,514.937Z" transform="translate(-658.535 -374.856)" fill="#323b52"/>
    <path id="Path_492" data-name="Path 492" d="M774.79,514.9l-.54,1.517a.167.167,0,0,1-.157.111h-8.857a.167.167,0,0,1-.154-.229l.614-1.517a.166.166,0,0,1,.154-.1h8.783A.166.166,0,0,1,774.79,514.9Z" transform="translate(-704.973 -374.856)" fill="#323b52"/>
    <path id="Path_493" data-name="Path 493" d="M810.941,514.962l-.605,1.438a.206.206,0,0,1-.19.126H799.1a.206.206,0,0,1-.181-.305l.791-1.439a.206.206,0,0,1,.181-.107h10.855A.206.206,0,0,1,810.941,514.962Z" transform="translate(-753.651 -374.856)" fill="#323b52"/>
    <path id="Path_494" data-name="Path 494" d="M848.588,514.963l-.7,1.451a.2.2,0,0,1-.18.112h-9.491a.2.2,0,0,1-.165-.312l.984-1.452a.2.2,0,0,1,.165-.087h9.211A.2.2,0,0,1,848.588,514.963Z" transform="translate(-805.778 -374.856)" fill="#323b52"/>
    <path id="Path_495" data-name="Path 495" d="M437.907,508.9l.416,1.155a.389.389,0,0,1-.366.521H429.5a.389.389,0,0,1-.373-.276l-.35-1.155a.389.389,0,0,1,.373-.5h8.39A.389.389,0,0,1,437.907,508.9Z" transform="translate(-244.058 -371.055)" fill="#323b52"/>
    <path id="Path_496" data-name="Path 496" d="M469.947,508.62l.448,1.675a.154.154,0,0,1-.149.194h-9.425a.154.154,0,0,1-.15-.119l-.378-1.627a.154.154,0,0,1,.149-.189l9.356-.049A.153.153,0,0,1,469.947,508.62Z" transform="translate(-287.779 -370.97)" fill="#323b52"/>
    <path id="Path_497" data-name="Path 497" d="M501.17,508.534l.4,1.776a.1.1,0,0,1-.1.127H492a.1.1,0,0,1-.1-.085l-.339-1.806a.1.1,0,0,1,.1-.123l9.411.03A.1.1,0,0,1,501.17,508.534Z" transform="translate(-330.517 -370.918)" fill="#323b52"/>
    <path id="Path_498" data-name="Path 498" d="M532.525,508.491l.331,1.774a.122.122,0,0,1-.12.144h-8.744a.122.122,0,0,1-.121-.105l-.245-1.786a.122.122,0,0,1,.121-.138l8.659.013A.122.122,0,0,1,532.525,508.491Z" transform="translate(-373.676 -370.89)" fill="#323b52"/>
    <path id="Path_499" data-name="Path 499" d="M564.825,508.584l.19,1.648a.183.183,0,0,1-.182.2H556.7a.183.183,0,0,1-.183-.171l-.111-1.648a.183.183,0,0,1,.183-.2h8.053A.183.183,0,0,1,564.825,508.584Z" transform="translate(-417.966 -370.917)" fill="#323b52"/>
    <path id="Path_500" data-name="Path 500" d="M596.322,508.531v1.63a.193.193,0,0,1-.193.193H587.5a.193.193,0,0,1-.192-.212l.17-1.677a.193.193,0,0,1,.193-.174l8.462.048A.192.192,0,0,1,596.322,508.531Z" transform="translate(-460.708 -370.834)" fill="#323b52"/>
    <path id="Path_501" data-name="Path 501" d="M627.225,508.5l-.128,1.626a.219.219,0,0,1-.219.2h-8.542a.22.22,0,0,1-.218-.246l.2-1.642a.219.219,0,0,1,.218-.193l8.468.016A.219.219,0,0,1,627.225,508.5Z" transform="translate(-503.015 -370.804)" fill="#323b52"/>
    <path id="Path_502" data-name="Path 502" d="M657.929,508.477l-.2,1.65a.217.217,0,0,1-.216.191h-8.759a.217.217,0,0,1-.211-.267l.386-1.631a.217.217,0,0,1,.211-.167l8.576-.019A.217.217,0,0,1,657.929,508.477Z" transform="translate(-544.977 -370.798)" fill="#323b52"/>
    <path id="Path_503" data-name="Path 503" d="M689.58,508.519l-.311,1.606a.238.238,0,0,1-.234.192h-9a.238.238,0,0,1-.23-.3l.435-1.609a.238.238,0,0,1,.23-.176l8.871,0A.238.238,0,0,1,689.58,508.519Z" transform="translate(-588.201 -370.798)" fill="#323b52"/>
    <path id="Path_504" data-name="Path 504" d="M720.9,508.438l-.4,1.625a.23.23,0,0,1-.224.175h-8.565a.23.23,0,0,1-.219-.3l.547-1.67a.23.23,0,0,1,.22-.158l8.417.044A.23.23,0,0,1,720.9,508.438Z" transform="translate(-631.247 -370.72)" fill="#323b52"/>
    <path id="Path_505" data-name="Path 505" d="M752.5,508.343l-.549,1.722a.207.207,0,0,1-.2.144H743.37a.207.207,0,0,1-.2-.271l.563-1.734a.207.207,0,0,1,.2-.143l8.373.012A.207.207,0,0,1,752.5,508.343Z" transform="translate(-674.58 -370.689)" fill="#323b52"/>
    <path id="Path_506" data-name="Path 506" d="M782.625,508.437l-.594,1.6a.266.266,0,0,1-.25.174h-8.067a.267.267,0,0,1-.249-.362l.619-1.615a.266.266,0,0,1,.25-.171l8.042.016A.266.266,0,0,1,782.625,508.437Z" transform="translate(-715.917 -370.69)" fill="#323b52"/>
    <path id="Path_507" data-name="Path 507" d="M813.6,508.368l-.751,1.71a.219.219,0,0,1-.2.131h-7.487a.219.219,0,0,1-.2-.313l.814-1.71a.219.219,0,0,1,.2-.125H813.4A.219.219,0,0,1,813.6,508.368Z" transform="translate(-758.548 -370.689)" fill="#323b52"/>
    <path id="Path_508" data-name="Path 508" d="M845.154,508.306l-.782,1.67a.257.257,0,0,1-.233.148h-8.916a.257.257,0,0,1-.213-.4l1.141-1.682a.257.257,0,0,1,.214-.113l8.556.012A.258.258,0,0,1,845.154,508.306Z" transform="translate(-801.22 -370.605)" fill="#323b52"/>
    <path id="Path_509" data-name="Path 509" d="M460.5,576.426h76.405a1.493,1.493,0,0,0,1.465-1.782l-2.088-10.593a1.494,1.494,0,0,0-1.465-1.2h-72.97a1.493,1.493,0,0,0-1.481,1.305l-1.347,10.592A1.493,1.493,0,0,0,460.5,576.426Z" transform="translate(-355.305 -405.2)" fill="#b9c8ed"/>
    <path id="Path_510" data-name="Path 510" d="M507.636,603.274l-9.717,6.707a.769.769,0,0,1-.407.117H255.687a.724.724,0,0,1-.494-.2l-7.308-6.293Z" transform="translate(-246.407 -430.665)" fill="#4f5e82"/>
    <path id="Rectangle_722" data-name="Rectangle 722" d="M6.807,0H185.6a6.808,6.808,0,0,1,6.808,6.808v93.718a6.808,6.808,0,0,1-6.808,6.808H6.808A6.808,6.808,0,0,1,0,100.526V6.807A6.807,6.807,0,0,1,6.807,0Z" transform="translate(34.735 11.226)" fill="#6b80b0"/>
    <path id="Path_511" data-name="Path 511" d="M684.3,546.809l-.644,2.935a.179.179,0,0,1-.175.14H673.173a.179.179,0,0,1-.175-.217l.644-2.935a.179.179,0,0,1,.174-.141h10.306A.179.179,0,0,1,684.3,546.809Z" transform="translate(-580.4 -394.961)" fill="#323b52"/>
    <path id="Path_512" data-name="Path 512" d="M721.386,546.818l-.641,2.92a.186.186,0,0,1-.182.146H710.043a.186.186,0,0,1-.179-.234l.783-2.921a.186.186,0,0,1,.179-.138H721.2A.186.186,0,0,1,721.386,546.818Z" transform="translate(-631.131 -394.961)" fill="#323b52"/>
    <path id="Path_513" data-name="Path 513" d="M757.98,546.832l-.78,2.911a.191.191,0,0,1-.185.141H746.4a.191.191,0,0,1-.181-.25l.952-2.911a.191.191,0,0,1,.181-.131H757.8A.191.191,0,0,1,757.98,546.832Z" transform="translate(-681.18 -394.961)" fill="#323b52"/>
    <path id="Path_514" data-name="Path 514" d="M795.522,551.867l-.349,1.115a.148.148,0,0,1-.142.1H784.721a.148.148,0,0,1-.139-.2l.413-1.115a.149.149,0,0,1,.139-.1H795.38A.148.148,0,0,1,795.522,551.867Z" transform="translate(-732.92 -398.162)" fill="#323b52"/>
    <path id="Path_515" data-name="Path 515" d="M832.855,551.905l-.46,1.08a.166.166,0,0,1-.153.1h-10.45a.166.166,0,0,1-.137-.26l.738-1.08a.167.167,0,0,1,.137-.072H832.7A.166.166,0,0,1,832.855,551.905Z" transform="translate(-783.972 -398.162)" fill="#323b52"/>
    <path id="Path_516" data-name="Path 516" d="M869.831,551.911l-.722,1.105a.153.153,0,0,1-.128.069H858.107a.153.153,0,0,1-.12-.248l.88-1.105a.153.153,0,0,1,.12-.058H869.7A.153.153,0,0,1,869.831,551.911Z" transform="translate(-834.406 -398.162)" fill="#323b52"/>
    <path id="Path_517" data-name="Path 517" d="M830.5,547.517l-.459.917a.144.144,0,0,1-.128.079h-9.759a.143.143,0,0,1-.114-.229l.691-.917a.143.143,0,0,1,.114-.057h9.526A.143.143,0,0,1,830.5,547.517Z" transform="translate(-781.017 -395.413)" fill="#323b52"/>
    <path id="Path_518" data-name="Path 518" d="M339.987,178.131V278.9a2.523,2.523,0,0,0,2.523,2.52H529.875a2.522,2.522,0,0,0,2.52-2.52V178.131Z" transform="translate(-305.252 -162.862)" fill="#fff"/>
    <path id="Path_519" data-name="Path 519" d="M350.975,170.381a1.122,1.122,0,1,0,1.122-1.122A1.122,1.122,0,0,0,350.975,170.381Z" transform="translate(-130.143 -157.274)" fill="#fff"/>
    <path id="Path_520" data-name="Path 520" d="M362.7,170.381a1.122,1.122,0,1,0,1.122-1.122A1.122,1.122,0,0,0,362.7,170.381Z" transform="translate(-146.211 -157.274)" fill="#d3daed"/>
    <ellipse id="Ellipse_7" data-name="Ellipse 7" cx="1.122" cy="1.122" rx="1.122" ry="1.122" transform="translate(212.331 11.985)" fill="#ed4f7a"/>
    <path id="Path_521" data-name="Path 521" d="M339.987,178.131V281.422h49.626a2.522,2.522,0,0,0,2.52-2.52V178.131Z" transform="translate(-164.989 -162.862)" fill="#ed4f75"/>
    <rect id="Rectangle_723" data-name="Rectangle 723" width="6.281" height="6.281" transform="translate(213.496 18.483)" fill="#fff"/>
    <rect id="Rectangle_724" data-name="Rectangle 724" width="28.401" height="4.035" transform="translate(182.545 20.728)" fill="#fff"/>
    <rect id="Rectangle_725" data-name="Rectangle 725" width="37.599" height="2.569" transform="translate(182.271 32.698)" fill="#fff"/>
    <rect id="Rectangle_726" data-name="Rectangle 726" width="37.599" height="2.569" transform="translate(182.271 39.326)" fill="#fff"/>
    <rect id="Rectangle_727" data-name="Rectangle 727" width="37.599" height="2.569" transform="translate(182.271 46.174)" fill="#fff"/>
    <rect id="Rectangle_728" data-name="Rectangle 728" width="37.599" height="2.569" transform="translate(182.271 52.897)" fill="#fff"/>
    <rect id="Rectangle_729" data-name="Rectangle 729" width="37.599" height="2.569" transform="translate(182.271 59.745)" fill="#fff"/>
    <rect id="Rectangle_730" data-name="Rectangle 730" width="37.599" height="2.569" transform="translate(177.579 66.084)"/>
    <rect id="Rectangle_731" data-name="Rectangle 731" width="37.599" height="2.569" transform="translate(182.271 72.712)" fill="#fff"/>
    <rect id="Rectangle_732" data-name="Rectangle 732" width="37.599" height="2.569" transform="translate(182.271 79.559)" fill="#fff"/>
    <rect id="Rectangle_733" data-name="Rectangle 733" width="37.599" height="2.569" transform="translate(182.271 86.283)" fill="#fff"/>
    <rect id="Rectangle_734" data-name="Rectangle 734" width="37.599" height="2.569" transform="translate(182.271 93.131)" fill="#fff"/>
    <rect id="Rectangle_735" data-name="Rectangle 735" width="107.65" height="4.035" transform="translate(60.623 20.726)" fill="#d3daed"/>
    <rect id="Rectangle_736" data-name="Rectangle 736" width="16.327" height="2.271" transform="translate(150.506 30.427)" fill="#d3daed"/>
    <rect id="Rectangle_737" data-name="Rectangle 737" width="16.327" height="2.271" transform="translate(122.731 30.427)" fill="#d3daed"/>
    <rect id="Rectangle_738" data-name="Rectangle 738" width="16.327" height="2.271" transform="translate(60.623 30.427)" fill="#d3daed"/>
    <g id="Group_759" data-name="Group 759" transform="translate(34.735 35.267)">
      <rect id="Rectangle_739" data-name="Rectangle 739" width="140.263" height="10.907" fill="#d3daed"/>
      <rect id="Rectangle_740" data-name="Rectangle 740" width="2.069" height="2.069" transform="translate(136.823 4.419)" fill="#fff"/>
      <rect id="Rectangle_741" data-name="Rectangle 741" width="2.069" height="2.069" transform="translate(133.539 4.419)" fill="#ed4f7a"/>
      <rect id="Rectangle_742" data-name="Rectangle 742" width="22.586" height="2.209" transform="translate(109.512 4.349)"/>
      <rect id="Rectangle_743" data-name="Rectangle 743" width="56.27" height="2.209" transform="translate(48.053 4.349)"/>
      <rect id="Rectangle_744" data-name="Rectangle 744" width="27.162" height="2.209" transform="translate(15.053 4.349)"/>
    </g>
    <rect id="Rectangle_745" data-name="Rectangle 745" width="4.84" height="4.035" transform="translate(60.623 20.726)" fill="#ed4f7a"/>
    <g id="Group_760" data-name="Group 760" transform="translate(34.735 46.174)">
      <rect id="Rectangle_746" data-name="Rectangle 746" width="140.263" height="10.907" fill="#fff"/>
      <rect id="Rectangle_747" data-name="Rectangle 747" width="2.069" height="2.069" transform="translate(136.823 4.419)" fill="#d3daed"/>
      <rect id="Rectangle_748" data-name="Rectangle 748" width="2.069" height="2.069" transform="translate(133.539 4.419)" fill="#ed4f7a"/>
      <rect id="Rectangle_749" data-name="Rectangle 749" width="22.586" height="2.209" transform="translate(109.512 4.349)" fill="#a9b4d1"/>
      <rect id="Rectangle_750" data-name="Rectangle 750" width="56.27" height="2.209" transform="translate(48.053 4.349)" fill="#a9b4d1"/>
      <rect id="Rectangle_751" data-name="Rectangle 751" width="27.162" height="2.209" transform="translate(15.053 4.349)" fill="#a9b4d1"/>
    </g>
    <g id="Group_761" data-name="Group 761" transform="translate(34.735 57.08)">
      <rect id="Rectangle_752" data-name="Rectangle 752" width="140.263" height="10.907" fill="#d3daed"/>
      <rect id="Rectangle_753" data-name="Rectangle 753" width="2.069" height="2.069" transform="translate(136.823 4.419)" fill="#fff"/>
      <rect id="Rectangle_754" data-name="Rectangle 754" width="2.069" height="2.069" transform="translate(133.539 4.419)" fill="#ed4f7a"/>
      <rect id="Rectangle_755" data-name="Rectangle 755" width="22.586" height="2.209" transform="translate(109.512 4.349)" fill="#a9b4d1"/>
      <rect id="Rectangle_756" data-name="Rectangle 756" width="56.27" height="2.209" transform="translate(48.053 4.349)" fill="#a9b4d1"/>
      <rect id="Rectangle_757" data-name="Rectangle 757" width="27.162" height="2.209" transform="translate(15.053 4.349)" fill="#a9b4d1"/>
    </g>
    <g id="Group_762" data-name="Group 762" transform="translate(34.735 67.987)">
      <rect id="Rectangle_758" data-name="Rectangle 758" width="140.263" height="10.907" fill="#fff"/>
      <rect id="Rectangle_759" data-name="Rectangle 759" width="2.069" height="2.069" transform="translate(136.823 4.419)" fill="#d3daed"/>
      <rect id="Rectangle_760" data-name="Rectangle 760" width="2.069" height="2.069" transform="translate(133.539 4.419)" fill="#ed4f7a"/>
      <rect id="Rectangle_761" data-name="Rectangle 761" width="22.586" height="2.209" transform="translate(109.512 4.349)" fill="#a9b4d1"/>
      <rect id="Rectangle_762" data-name="Rectangle 762" width="56.27" height="2.209" transform="translate(48.053 4.349)" fill="#a9b4d1"/>
      <rect id="Rectangle_763" data-name="Rectangle 763" width="27.162" height="2.209" transform="translate(15.053 4.349)" fill="#a9b4d1"/>
    </g>
    <g id="Group_763" data-name="Group 763" transform="translate(34.735 79.559)">
      <rect id="Rectangle_764" data-name="Rectangle 764" width="140.263" height="10.907" fill="#d3daed"/>
      <rect id="Rectangle_765" data-name="Rectangle 765" width="2.069" height="2.069" transform="translate(136.823 4.419)" fill="#fff"/>
      <rect id="Rectangle_766" data-name="Rectangle 766" width="2.069" height="2.069" transform="translate(133.539 4.419)" fill="#ed4f7a"/>
      <rect id="Rectangle_767" data-name="Rectangle 767" width="22.586" height="2.209" transform="translate(109.512 4.349)" fill="#a9b4d1"/>
      <rect id="Rectangle_768" data-name="Rectangle 768" width="56.27" height="2.209" transform="translate(48.053 4.349)" fill="#a9b4d1"/>
      <rect id="Rectangle_769" data-name="Rectangle 769" width="27.162" height="2.209" transform="translate(15.053 4.349)" fill="#a9b4d1"/>
    </g>
    <g id="Group_764" data-name="Group 764" transform="translate(34.735 90.246)">
      <rect id="Rectangle_770" data-name="Rectangle 770" width="140.263" height="10.907" fill="#fff"/>
      <rect id="Rectangle_771" data-name="Rectangle 771" width="2.069" height="2.069" transform="translate(136.823 4.419)" fill="#d3daed"/>
      <rect id="Rectangle_772" data-name="Rectangle 772" width="2.069" height="2.069" transform="translate(133.539 4.419)" fill="#ed4f7a"/>
      <rect id="Rectangle_773" data-name="Rectangle 773" width="22.586" height="2.209" transform="translate(109.512 4.349)" fill="#a9b4d1"/>
      <rect id="Rectangle_774" data-name="Rectangle 774" width="56.27" height="2.209" transform="translate(48.053 4.349)" fill="#a9b4d1"/>
      <rect id="Rectangle_775" data-name="Rectangle 775" width="27.162" height="2.209" transform="translate(15.053 4.349)" fill="#a9b4d1"/>
    </g>
    <g id="Group_765" data-name="Group 765" transform="translate(34.735 100.507)">
      <rect id="Rectangle_776" data-name="Rectangle 776" width="140.263" height="10.907" fill="#d3daed"/>
      <rect id="Rectangle_777" data-name="Rectangle 777" width="2.069" height="2.069" transform="translate(136.823 4.419)" fill="#fff"/>
      <rect id="Rectangle_778" data-name="Rectangle 778" width="2.069" height="2.069" transform="translate(133.539 4.419)" fill="#ed4f7a"/>
      <rect id="Rectangle_779" data-name="Rectangle 779" width="22.586" height="2.209" transform="translate(109.512 4.349)" fill="#a9b4d1"/>
      <rect id="Rectangle_780" data-name="Rectangle 780" width="56.27" height="2.209" transform="translate(48.053 4.349)" fill="#a9b4d1"/>
      <rect id="Rectangle_781" data-name="Rectangle 781" width="27.162" height="2.209" transform="translate(15.053 4.349)" fill="#a9b4d1"/>
    </g>
  </g>
  <g id="Group_780" data-name="Group 780" transform="translate(244.301 99.933)">
    <path id="Path_522" data-name="Path 522" d="M165.625,630.456c.325,4.542,1.19,16.33,1.3,18.277s-3.193,2.487-3.49.865S160,632.186,160,632.186Z" transform="translate(-68.184 -530.026)"/>
    <path id="Path_523" data-name="Path 523" d="M214.438,643.9s4.946,21.973,5.595,24.136-1.958,2.468-2.726,1.063c-.92-1.684-10.434-24.55-10.434-24.55Z" transform="translate(-138.741 -538.493)"/>
    <path id="Path_524" data-name="Path 524" d="M269.367,641.268c.338,2.212,2.006,10.679,2.389,12.9.2,1.177-2.987,1.621-3.361.267-.674-2.44-4.111-13.164-4.111-13.164Z" transform="translate(-211.617 -536.837)"/>
    <path id="Path_525" data-name="Path 525" d="M352.615,639.059s-8.814,19.251-9.9,21.414-4.11,1.73-3.677-.757,5.516-21.955,5.516-21.955Z" transform="translate(-320.118 -534.628)"/>
    <path id="Path_526" data-name="Path 526" d="M119.179,469.3c.355,5.8,4.261,17.459,8.345,25.627s6.747,11.72,10.831,11.9,58.423,3.194,61.44,2.662,23.085-6.569,24.149-7.99,4.8-17.58,6.927-30.718a203.316,203.316,0,0,0,1.915-37.894,4.234,4.234,0,0,0-1.226-2.736c-2.145-2.193-6.667-2.7-10.278-2.7H158.42c-9.409,0-11.008.177-11.717,4.261s-1.244,15.272-1.776,19.179A8.49,8.49,0,0,1,138,458.17c-3.372.535-7.279,1.067-12.429,1.421-2.769.189-4.512,1.3-5.473,3.2h0A12.872,12.872,0,0,0,119.179,469.3Z" transform="translate(-119.133 -402.151)" fill="#38425c"/>
    <g id="Group_779" data-name="Group 779" transform="translate(0)">
      <path id="Path_527" data-name="Path 527" d="M272.916,497.638c-.809,3.676-.706,7.443-2.749,12.2l8.373,2,.511-10.313Z" transform="translate(-221.08 -446.362)" fill="#eda674"/>
      <path id="Path_528" data-name="Path 528" d="M293.327,665.405c.143,2.258.554,3.982,1.749,5.07s3.088,3.816,1.685,5.853-3.009,2.454-4.043,5.739-3.335,4.72-5.385,4.55-1.924-1.02-2.2-1.22.168-1.988,1.894-5.058A16.231,16.231,0,0,0,288.79,671a29.609,29.609,0,0,0-1.495-4.3Z" transform="translate(-244.797 -552.041)" fill="#fff"/>
      <path id="Path_529" data-name="Path 529" d="M320.812,529.009c.354,5.8,4.261,17.459,8.345,25.627s6.746,11.72,10.83,11.9c1.51.065,9.9.52,20.023,1.039C358.453,563.6,356.5,559,354.6,554.588c-5.234-.412-9.335-.762-10.525-.842-3.236-.215-5.189-2.168-6.075-8.029s-2.627-15-6.706-19.483c-2.9-3.2-5.727-4.625-9.56-3.738h0A12.87,12.87,0,0,0,320.812,529.009Z" transform="translate(-320.765 -461.858)" fill="#4f5e82"/>
      <path id="Path_530" data-name="Path 530" d="M291.178,530.595c-6.436,1.418-8.617,1.636-10.581,5.672s1.964,7.636,8.4,10.908,22.8,8.181,30.978,8.29c1.974-1.806,0-6.872,0-6.872l-19.5-17.561Z" transform="translate(-266.553 -467.122)" fill="#398299"/>
      <path id="Path_531" data-name="Path 531" d="M266.639,548.239c-2.182,5.454-11.017,9.381-18.216,9.926s-19.2-4.963-19.2-4.963c4.472,8.017,6.311,27.409,7.293,31.336-1.745,2.509-6.436,1.636-6.436,1.636-1.26-7.394-14.71-35.535-15.692-39.571s-1.091-6.654,2.182-8.835,30.588,1.963,30.588,1.963l12.389.218Z" transform="translate(-187.803 -471.241)" fill="#5a9eb3"/>
      <path id="Path_532" data-name="Path 532" d="M232.566,394.324c4.695-5.784,4.611-10.9,1.677-14.083s-3.437-1.258-3.689-5.7-3.353-4.275-4.108-5.868-.642-6.725-8.138-9.266c-3.223-1.092-6.843.976-6.843.976-1.981,0-4.418,1.83-5.661,3.569-1.268,1.774-2.3,3.632-1.265,7.907s-.355,5.3-.746,7.125c-.668,3.113,1.856,4.3,1.353,5.979s-2.34,5.371-.42,7.929c2,2.659,7.613,1.433,7.613,1.433Z" transform="translate(-153.721 -359.087)" fill="#2e374d"/>
      <path id="Path_533" data-name="Path 533" d="M218.231,436.163c5.319,1.145,10.181,2.7,12.113,6.287s2.041,11.329,1.6,14.711-3.272,18.216-3.927,19.852-.763,5.345-1.418,7.2c-2.945-2.618-11.929-7.308-15.182-7.962a106.433,106.433,0,0,0-11-.982s1.309-5.89,1.091-8.617-2.836-6.327-2.727-10.8-.058-10.362,0-12.871a8.587,8.587,0,0,1,3.276-6.326c1.636-1.091,5.178-1.165,5.178-1.165Z" transform="translate(-147.768 -407.214)" fill="#ed4f7a"/>
      <path id="Path_534" data-name="Path 534" d="M248.752,412.847c-.118,3.689-.369,7.713,2.313,9.054-3.018,1.257-4.373,4.946-5.875,8.132s-4.017,5.113-6.448,4.778-3.008-3.51-1.5-6.911a25.369,25.369,0,0,1,2.972-5.161,1.728,1.728,0,0,0-.01-.828,39.981,39.981,0,0,0-.978-3.95Z" transform="translate(-180.602 -392.951)" fill="#eda674"/>
      <path id="Path_535" data-name="Path 535" d="M244.955,364.957c-7.753.136-6.424,8.5-6.062,9.861s1.551,3.38,1.267,4.614c-.463,2.007,1.809,10.223,6.152,10.223s9.68-4.343,10.042-9.952S255.269,364.776,244.955,364.957Z" transform="translate(-186.742 -362.783)" fill="#eda674"/>
      <g id="Group_767" data-name="Group 767" transform="translate(59.57 16.911)">
        <path id="Path_536" data-name="Path 536" d="M238.288,414.9c4.415,0,9.831-4.411,10.2-10.1l-.312-.02c-.356,5.522-5.607,9.805-9.886,9.805Z" transform="translate(-238.288 -404.781)" fill="#965f37"/>
      </g>
      <path id="Path_537" data-name="Path 537" d="M232.3,369.187c6.051,1.1,8.108,4.887,10.9,5.39,4.213.758,3.073,4.255,2.729,5.369a21.22,21.22,0,0,0-.563,2.9c.175,2.918,3.887-1.463,3.887-1.463l-.922-9.224-5.538-8.4-7.78-1.171A14.918,14.918,0,0,0,232.3,369.187Z" transform="translate(-177.269 -361.291)" fill="#2e374d"/>
      <path id="Path_538" data-name="Path 538" d="M273.1,376.358c-.4-1.965-1.272-5,1.893-7.171a50.628,50.628,0,0,1,2.716-6.6s-3.544.722-4.87,2.971-2.164,2.1-2.048,4.409S273.1,376.358,273.1,376.358Z" transform="translate(-219.961 -361.291)" fill="#2e374d"/>
      <path id="Path_539" data-name="Path 539" d="M236.84,398.4c-.393,1.111-.115,2.222.62,2.482s1.65-.429,2.043-1.54.115-2.222-.62-2.482S237.233,397.291,236.84,398.4Z" transform="translate(-169.311 -382.847)" fill="#eda674"/>
      <g id="Group_768" data-name="Group 768" transform="translate(68.235 14.674)">
        <path id="Path_540" data-name="Path 540" d="M238.552,401.212l.1-.183c-.113-.062-.168-.127-.163-.192.014-.174.385-.413.722-.536a.825.825,0,0,0,.606-.778.8.8,0,0,0-.436-.738.811.811,0,0,0-.723.089.537.537,0,0,0-.246.445h.209a.34.34,0,0,1,.157-.274.516.516,0,0,1,.83.477.611.611,0,0,1-.468.583c-.307.111-.833.387-.859.715C238.273,400.927,238.313,401.081,238.552,401.212Z" transform="translate(-238.28 -398.738)" fill="#965f37"/>
      </g>
      <path id="Path_541" data-name="Path 541" d="M259.756,401.525a.833.833,0,1,0,.771-1.042A.928.928,0,0,0,259.756,401.525Z" transform="translate(-199.561 -385.163)"/>
      <path id="Path_542" data-name="Path 542" d="M275.734,403.16a.833.833,0,1,0,.771-1.043A.927.927,0,0,0,275.734,403.16Z" transform="translate(-221.453 -386.192)"/>
      <ellipse id="Ellipse_8" data-name="Ellipse 8" cx="1.309" cy="1.309" rx="1.309" ry="1.309" transform="translate(61.97 17.705)" fill="#ea7159"/>
      <g id="Group_769" data-name="Group 769" transform="translate(59.191 13.341)">
        <path id="Path_543" data-name="Path 543" d="M258.254,396.45a.416.416,0,0,0,.33-.161c.338-.435,1.63-.353,2.011-.185a.417.417,0,0,0,.336-.763,3.59,3.59,0,0,0-1.419-.2,2.1,2.1,0,0,0-1.587.639.417.417,0,0,0,.329.673Z" transform="translate(-257.838 -395.135)" fill="#2e374d"/>
      </g>
      <g id="Group_770" data-name="Group 770" transform="translate(53.131 14.106)">
        <path id="Path_544" data-name="Path 544" d="M275.42,398.338a.417.417,0,0,0,.278-.106,2.264,2.264,0,0,1,1.766-.042.417.417,0,0,0,.341-.761,2.975,2.975,0,0,0-2.664.182.417.417,0,0,0,.278.728Z" transform="translate(-275.003 -397.202)" fill="#2e374d"/>
      </g>
      <g id="Group_771" data-name="Group 771" transform="translate(56.48 16.812)">
        <path id="Path_545" data-name="Path 545" d="M269.2,408.341a1.3,1.3,0,0,0,.189-.014,3.654,3.654,0,0,0,1.016-.262l-.173-.26a3.6,3.6,0,0,1-.888.213.812.812,0,0,1-.722-.218.5.5,0,0,1-.111-.485c.031-.119.076-.249.129-.4a4.891,4.891,0,0,0,.316-2.4l-.311.036a4.619,4.619,0,0,1-.3,2.26c-.053.151-.1.292-.137.425a.815.815,0,0,0,.181.772A1.088,1.088,0,0,0,269.2,408.341Z" transform="translate(-268.179 -404.515)" fill="#965f37"/>
      </g>
      <path id="Path_546" data-name="Path 546" d="M266.507,417.153c-.555,1.961-3.171,3.3-4.742.771A15.25,15.25,0,0,0,266.507,417.153Z" transform="translate(-205.427 -395.664)" fill="#fcfcfc"/>
      <path id="Path_547" data-name="Path 547" d="M279.015,543.108l-11.889-1.552-.286-1.755,12.176,2.116Z" transform="translate(-219.813 -472.921)" fill="#9da9c9"/>
      <path id="Path_548" data-name="Path 548" d="M227.406,493.458c2.836.873,7.622,1.214,9.865.661-1.312,7.487-1.793,14.719-2.448,17.01s-1.963,4.036-4.145,3.927-13.517-1.722-16.779-2.182c-3.621-.51-13.722-2.265-13.722-2.265l-.668-5.042c4.4,0,5.355,1.313,7.17,1.635s7.637-.218,11.455-.546,8.835-.218,8.835-.218Z" transform="translate(-153.151 -443.729)" fill="#eda674"/>
      <g id="Group_772" data-name="Group 772" transform="translate(74.099 33.647)">
        <path id="Path_549" data-name="Path 549" d="M213.52,464.279a.157.157,0,0,0,.157-.154,46.078,46.078,0,0,1,.97-8.669c.55-2.344,1.6-5.139,3.455-5.139a.157.157,0,1,0,0-.313c-1.657,0-2.922,1.81-3.76,5.381a46.391,46.391,0,0,0-.978,8.735.157.157,0,0,0,.153.16Z" transform="translate(-213.364 -450.004)"/>
      </g>
      <g id="Group_773" data-name="Group 773" transform="translate(59.046 55.463)">
        <path id="Path_550" data-name="Path 550" d="M243.39,509.805a21.586,21.586,0,0,0,5.431-.549.157.157,0,0,0-.1-.3,25.821,25.821,0,0,1-10.366,0,.156.156,0,1,0-.086.3A20.068,20.068,0,0,0,243.39,509.805Z" transform="translate(-238.155 -508.951)"/>
      </g>
      <g id="Group_774" data-name="Group 774" transform="translate(51.679 33.647)">
        <path id="Path_551" data-name="Path 551" d="M280.425,458.41a.156.156,0,0,0,.153-.127A39.921,39.921,0,0,1,282.5,451.1c.1-.281.2-.576.311-.892a.156.156,0,0,0-.3-.1c-.11.316-.212.611-.311.891a40.179,40.179,0,0,0-1.935,7.224.156.156,0,0,0,.125.183A.152.152,0,0,0,280.425,458.41Z" transform="translate(-280.269 -450.004)"/>
      </g>
      <g id="Group_775" data-name="Group 775" transform="translate(38.264 75.694)">
        <path id="Path_552" data-name="Path 552" d="M317.286,570.506a.1.1,0,0,0,.041-.008.1.1,0,0,0,.054-.137l-.379-.882a32.778,32.778,0,0,0-2.96-5.812.1.1,0,1,0-.177.111,32.606,32.606,0,0,1,2.945,5.783c.117.273.243.566.379.882A.1.1,0,0,0,317.286,570.506Z" transform="translate(-313.85 -563.618)"/>
      </g>
      <path id="Path_553" data-name="Path 553" d="M298.991,473.864l4.935,22.192,29.949,3.165-3.759-23.062a1.419,1.419,0,0,0-.071-.27,1.474,1.474,0,0,0-1.265-.962l-28.688-2.33a1.04,1.04,0,0,0-1.1,1.266Z" transform="translate(-286.561 -430.587)" fill="#b9c8ed"/>
      <path id="Path_554" data-name="Path 554" d="M346.107,507.238l.372,1.52-2.968-.208-.489-1.463c-.015-.045.04-.087.109-.084l2.843.154A.137.137,0,0,1,346.107,507.238Z" transform="translate(-315.471 -452.261)" fill="#4c5a7d"/>
      <g id="Group_776" data-name="Group 776" transform="translate(67.493 17.456)">
        <path id="Path_555" data-name="Path 555" d="M241.968,406.935c.053,0,.107,0,.164,0l-.011-.208a1.2,1.2,0,0,1-1.182-.467l-.161.132A1.345,1.345,0,0,0,241.968,406.935Z" transform="translate(-240.778 -406.255)" fill="#965f37"/>
      </g>
      <g id="Group_777" data-name="Group 777" transform="translate(49.615 62.191)">
        <path id="Path_556" data-name="Path 556" d="M285.985,528.515l.053-.2c-.235-.062-.59-.2-1-.353a10.966,10.966,0,0,0-2.93-.827l-.009.208a11.009,11.009,0,0,1,2.865.814C285.38,528.314,285.739,528.451,285.985,528.515Z" transform="translate(-282.098 -527.133)" fill="#af6e43"/>
      </g>
      <g id="Group_778" data-name="Group 778" transform="translate(54.924 1.475)">
        <path id="Path_557" data-name="Path 557" d="M271.074,369.5a14.484,14.484,0,0,1,2.579-6.3l-.168-.124a14.171,14.171,0,0,0-2.619,6.417Z" transform="translate(-270.866 -363.073)" fill="#2b110d"/>
      </g>
      <path id="Path_558" data-name="Path 558" d="M309.313,473.352l31.04,2.538a1.475,1.475,0,0,0-1.265-.962L310.4,472.6A1.044,1.044,0,0,0,309.313,473.352Z" transform="translate(-296.87 -430.587)" fill="#dee8ff"/>
    </g>
    <path id="Path_559" data-name="Path 559" d="M169.437,558.658c.963,4.325,1.693,8.864,2.262,12.562,10.7.533,21.781,1.045,28.068,1.211.036,0,.068,0,.1,0,4.258.092,6.093-2.635,10.062-8.215,4-5.624,10.275-20.657,9.409-29.309-.765-7.662-7.819-8.791-11.442-6.471a15.488,15.488,0,0,0-1.209,1.058l0,0c-3,2.911-4.47,6.6-5.8,10.1-.225.59-.445,1.173-.668,1.748-.686,1.762-1.258,3.879-1.9,6.033-1.675,5.662-3.8,11.577-9.585,11.964C185.191,559.586,177.36,559.191,169.437,558.658Z" transform="translate(-124.174 -465.088)" fill="#4f5e82"/>
    <path id="Path_560" data-name="Path 560" d="M223.513,588.153c2.775.165,8.073.327,10.254.873s7.636,1.041,10.035-.461,1.745-3.357.654-5.1-5.039-.763-6.555,0-8.853,3.649-13.652,2.563Z" transform="translate(-170.202 -499.81)" fill="#fff"/>
    <path id="Path_561" data-name="Path 561" d="M119.133,514.09a45.423,45.423,0,0,0,4.965-.009c3.02-.532,23.085-6.569,24.149-7.99s4.8-17.58,6.927-30.718a203.314,203.314,0,0,0,1.915-37.894,4.234,4.234,0,0,0-1.226-2.736c-3,2.807-1.043,14.173-3.886,20.21s-5.86,9.055-16.868,11.54a19.379,19.379,0,0,0-7.946,3.6c3.623-2.32,10.677-1.191,11.442,6.472.866,8.652-5.405,23.685-9.409,29.309C125.226,511.454,123.391,514.181,119.133,514.09Z" transform="translate(-43.435 -406.743)" fill="#2e374d"/>
  </g>
  <g id="Group_810" data-name="Group 810" transform="translate(0 92.24)" opacity="0.61">
    <g id="Group_809" data-name="Group 809">
      <g id="Group_808" data-name="Group 808">
        <path id="Path_562" data-name="Path 562" d="M997.4,564.351a9.7,9.7,0,0,1-.074,1.184c-.025.2-.055.4-.091.6-.849,4.744-4.709,9.149-5.461,9.813-1.023.9-4.506,1.423-7.643,1.423s-8.684-.438-9.649-1.423a27,27,0,0,1-4.156-8.554c-.055-.2-.107-.4-.153-.6a11.756,11.756,0,0,1-.356-2.778,9.9,9.9,0,0,1,.43-2.622c.048-.169.1-.339.156-.51,1.232-3.794,3.984-7.774,4.079-9.564a25.156,25.156,0,0,0,8.443,1.5,34.191,34.191,0,0,0,9.288-1.5c.39,2.087,3.252,5.629,4.551,9.5.056.169.11.339.16.51A10.616,10.616,0,0,1,997.4,564.351Z" transform="translate(-954.063 -472.489)" fill="#a9b4d1"/>
        <path id="Path_563" data-name="Path 563" d="M1000.8,549.6c0,.963-4.287,1.743-9.576,1.743s-9.576-.78-9.576-1.743,4.287-1.744,9.576-1.744S1000.8,548.641,1000.8,549.6Z" transform="translate(-961.844 -470.305)" fill="#d3daed"/>
        <path id="Path_564" data-name="Path 564" d="M1001.479,551.027c0,.457-3.01.835-6.925.9q-.289,0-.584.006c-.189,0-.378,0-.57,0h-.116q-.3,0-.584,0l-.23,0c-.2,0-.39-.006-.582-.01q-.461-.01-.9-.026c-.2-.007-.392-.014-.583-.024-2.979-.133-5.083-.461-5.083-.842s2.085-.707,5.043-.841c.189-.009.384-.017.581-.024.328-.012.666-.021,1.011-.029l.582-.009.35,0,.514,0h.071q.351,0,.7,0l.584.009C998.568,550.2,1001.479,550.578,1001.479,551.027Z" transform="translate(-963.875 -471.728)" fill="#a9b4d1"/>
        <g id="Group_781" data-name="Group 781" transform="translate(20.295 32.373)">
          <path id="Path_565" data-name="Path 565" d="M1020.49,473.567c-.2-.007-.392-.014-.583-.024-.007-.51-.022-1.074-.041-1.684-.306-9.825-1.987-31.607-3.292-37.637-1.39-6.424-2.884-8.091-2.9-8.108l.445-.34c.065.07,1.608,1.79,3.026,8.347,1.307,6.044,2.994,27.856,3.3,37.714C1020.468,472.464,1020.482,473.044,1020.49,473.567Z" transform="translate(-1013.675 -425.775)" fill="#a9b4d1"/>
        </g>
        <g id="Group_782" data-name="Group 782" transform="translate(28.012 35.02)">
          <path id="Path_566" data-name="Path 566" d="M1007.071,432.962c-.014.192-1.408,19.308-1.408,26.87,0,4.81-.225,11.9-.391,16.471-.023.658-.046,1.264-.067,1.8l-.582-.01c.021-.534.043-1.134.066-1.785.165-4.566.391-11.668.391-16.48,0-7.58,1.4-26.713,1.41-26.9Z" transform="translate(-1004.624 -432.928)" fill="#a9b4d1"/>
        </g>
        <g id="Group_783" data-name="Group 783" transform="translate(28.824 44.808)">
          <path id="Path_567" data-name="Path 567" d="M1003.042,475.5a152.489,152.489,0,0,1-.974,17.454c-.019.187-.038.37-.057.549q-.07.675-.13,1.266-.3,0-.584,0l.135-1.312q.025-.244.052-.5a152.688,152.688,0,0,0,.977-17.451c-.107-11.775.252-13.868,1.156-16.134l.547.18C1003.351,461.591,1002.932,463.226,1003.042,475.5Z" transform="translate(-1001.297 -459.375)" fill="#a9b4d1"/>
        </g>
        <g id="Group_784" data-name="Group 784" transform="translate(30.095 63.86)">
          <path id="Path_568" data-name="Path 568" d="M997.028,511.071a52.993,52.993,0,0,0-4.262,14.329c-.08.593-.145,1.192-.2,1.794q-.289,0-.584.006c.05-.607.116-1.211.2-1.809a53.537,53.537,0,0,1,4.315-14.534Z" transform="translate(-991.986 -510.857)" fill="#a9b4d1"/>
        </g>
        <path id="Path_569" data-name="Path 569" d="M1035.777,373.793c-1.248,2.766-1.108,2.641-2.494,3.394-.865.471-5.4-2.639-7.067-3.394a3.549,3.549,0,0,1-1.02-1.213c-.035-.055-.071-.113-.107-.171-.612-.991-1.361-2.428-2.156-4.059l-.077-.158c-.5-1.036-1.022-2.146-1.537-3.267l-.071-.157c-.446-.975-.888-1.957-1.309-2.9-.023-.051-.046-.1-.069-.155-.436-.979-.848-1.917-1.221-2.771-.023-.052-.046-.1-.068-.155-.452-1.036-.845-1.938-1.144-2.62l-.072-.164c-.169-.386-.306-.691-.4-.9a5.5,5.5,0,0,1-.331-2.3c0-.052,0-.105,0-.158a17.08,17.08,0,0,1,.3-2.542c.01-.054.021-.108.032-.161.475-2.393,1.357-4.574,2.041-4.436-.023,2.241,1.225,4.3,1.88,5.635,0,0,.078.129.221.361a25.58,25.58,0,0,1,.462-5.3,17.383,17.383,0,0,1,3.458,1.707l.154.1a19.616,19.616,0,0,1,1.795,1.322l.141.118a21.621,21.621,0,0,1,1.932,1.848c.044.048.089.1.133.145l.052.057c.654.724,1.281,1.444,1.875,2.154.046.054.091.109.136.164.85,1.02,1.632,2.016,2.338,2.967l.134.181c.7.946,1.317,1.845,1.849,2.673.043.067.085.132.126.2a25.264,25.264,0,0,1,1.447,2.557h0c.041.083.078.164.114.243.132.29.239.555.32.793C1038.071,364.874,1037.024,371.028,1035.777,373.793Z" transform="translate(-1011.686 -342.835)" fill="#d3daed"/>
        <g id="Group_785" data-name="Group 785" transform="translate(9.28 8.593)">
          <path id="Path_570" data-name="Path 570" d="M1040.114,386.879c-.034-.112-3.458-11.214-5.605-14.525-1.787-2.757-5.252-8.392-6.659-10.687l.291-.147c1.406,2.293,4.869,7.926,6.655,10.68a47.5,47.5,0,0,1,3.645,8.575c1.121,3.185,1.986,6,1.994,6.023Z" transform="translate(-1027.85 -361.52)" fill="#a9b4d1"/>
        </g>
        <g id="Group_786" data-name="Group 786" transform="translate(4.947 9.809)">
          <path id="Path_571" data-name="Path 571" d="M1062.934,366.45l-.011.15a55.258,55.258,0,0,1-6.232-1.638c0-.052,0-.105,0-.158A56.769,56.769,0,0,0,1062.934,366.45Z" transform="translate(-1056.691 -364.805)" fill="#a9b4d1"/>
        </g>
        <g id="Group_787" data-name="Group 787" transform="translate(5.68 13.164)">
          <path id="Path_572" data-name="Path 572" d="M1059.63,374.75c-.083.007-.183.01-.3.01-1.377,0-4.814-.463-6.653-.726l-.072-.164a60.161,60.161,0,0,0,7.006.729Z" transform="translate(-1052.609 -373.871)" fill="#a9b4d1"/>
        </g>
        <g id="Group_788" data-name="Group 788" transform="translate(11.171 25.357)">
          <path id="Path_573" data-name="Path 573" d="M1043.4,407.479c-.082,0-.173,0-.27,0-1.714,0-5.612-.335-7.493-.506l-.077-.158c1.94.178,6.286.554,7.835.511Z" transform="translate(-1035.56 -406.818)" fill="#a9b4d1"/>
        </g>
        <g id="Group_789" data-name="Group 789" transform="translate(13.403 29.574)">
          <path id="Path_574" data-name="Path 574" d="M1038.584,418.955a8.3,8.3,0,0,1-.894.041,48.649,48.649,0,0,1-6.124-.612c-.035-.055-.071-.113-.107-.171a38.651,38.651,0,0,0,7.1.592Z" transform="translate(-1031.46 -418.213)" fill="#a9b4d1"/>
        </g>
        <g id="Group_790" data-name="Group 790" transform="translate(11.684 5.071)">
          <path id="Path_575" data-name="Path 575" d="M1052.267,352.1c-.329,2.117-1,5.992-1.662,7.322l-.152-.062c.656-1.312,1.334-5.266,1.66-7.359Z" transform="translate(-1050.453 -352.003)" fill="#a9b4d1"/>
        </g>
        <g id="Group_791" data-name="Group 791" transform="translate(13.101 6.491)">
          <path id="Path_576" data-name="Path 576" d="M1047.555,355.959c-.466,2.01-1.593,6.744-2.179,8.165l-.155-.053c.592-1.434,1.74-6.278,2.193-8.231Z" transform="translate(-1045.221 -355.841)" fill="#a9b4d1"/>
        </g>
        <g id="Group_792" data-name="Group 792" transform="translate(19.992 16.798)">
          <path id="Path_577" data-name="Path 577" d="M1026.07,383.888c-.228,1.032-.656,2.9-1.178,4.859-1.051,3.932-1.965,6.312-2.715,7.073l-.124-.1c1.5-1.521,3.369-9.65,3.891-12.03C1025.987,383.757,1026.029,383.822,1026.07,383.888Z" transform="translate(-1022.053 -383.69)" fill="#a9b4d1"/>
        </g>
        <g id="Group_793" data-name="Group 793" transform="translate(21.196 19.553)">
          <path id="Path_578" data-name="Path 578" d="M1022.208,391.377c-.208.881-.568,2.348-1.046,4.041a52.927,52.927,0,0,1-3.177,8.738l-.151-.063a52.716,52.716,0,0,0,3.167-8.711c.517-1.835.9-3.4,1.093-4.247C1022.135,391.217,1022.172,391.3,1022.208,391.377Z" transform="translate(-1017.834 -391.134)" fill="#a9b4d1"/>
        </g>
        <path id="Path_579" data-name="Path 579" d="M998.828,367.457c-1.929,2.772-4.744,6.857-4.744,6.857-1.527-.583-5.708-4.44-7.074-9.442-1.229-4.5.634-19.775,2.262-24.236,1.279.735,2.654,1.749,2.9,2.847-.458-1.945-.917-3.679-1.229-4.821a3.024,3.024,0,0,1,4.108,1.255c1.045,1.861,5.226,20.285,5.708,22.2S1000.758,364.686,998.828,367.457Z" transform="translate(-963.806 -338.302)" fill="#a9b4d1"/>
        <g id="Group_794" data-name="Group 794" transform="translate(26.975 0.325)">
          <path id="Path_580" data-name="Path 580" d="M1007.806,374.886a123.845,123.845,0,0,1-.312-13.841c.027-2.763.052-5.373,0-7.286a53.015,53.015,0,0,0-1.6-9.691c-.464-1.968-.924-3.705-1.228-4.816l.323-.073c.3,1.113.766,2.854,1.231,4.826a53.226,53.226,0,0,1,1.6,9.746c.054,1.918.029,4.531,0,7.3a123.806,123.806,0,0,0,.31,13.8Z" transform="translate(-1004.667 -339.18)" fill="#a9b4d1"/>
        </g>
        <path id="Path_581" data-name="Path 581" d="M969.838,391.863c0,.053,0,.107-.008.161a8.679,8.679,0,0,1-.414,2.126c-.017.056-.036.111-.055.168a11.35,11.35,0,0,1-1.271,2.542c-.168.256-.348.527-.537.81l-.1.155c-.582.87-1.25,1.851-1.962,2.883h0l-.108.157c-.644.934-1.321,1.906-2,2.871l-.112.159c-.66.941-1.319,1.872-1.949,2.752l-.11.153c-.84,1.175-1.623,2.255-2.275,3.136l-.118.159c-.689.929-1.22,1.619-1.5,1.938-1.286,1.459-5.146,3.575-7.719,2.334-.83-.4-2.281-3.885-1.61-8.3.01-.067.021-.134.033-.2h0A15.613,15.613,0,0,1,949.193,402c.024-.054.049-.109.075-.164h0c.1-.223.214-.447.33-.672.541-1.041,1.083-1.99,1.614-2.852l.09-.144a38.957,38.957,0,0,1,2.253-3.259l.1-.133c.651-.836,1.246-1.522,1.757-2.076l.113-.121c.752-.809,1.3-1.316,1.548-1.58a5.625,5.625,0,0,1,1.348-.809l.148-.071c.9-.431,2.078-.921,3.2-1.361l.153-.06c.865-.337,1.691-.641,2.325-.859a7.3,7.3,0,0,1,.6,4.414,14.98,14.98,0,0,0,1.561-5.109c.987-.281,1.77-.334,2.323.463A7.091,7.091,0,0,1,969.838,391.863Z" transform="translate(-918.362 -368.95)" fill="#d3daed"/>
        <g id="Group_795" data-name="Group 795" transform="translate(31.073 18.177)">
          <path id="Path_582" data-name="Path 582" d="M956.977,414.692l-.324-.07c.792-3,9.74-14.746,13.561-19.761.466-.611.84-1.1,1.1-1.443a8,8,0,0,0,.607-.942,14.843,14.843,0,0,0,1.544-5.06l.33.037a15.13,15.13,0,0,1-1.577,5.159,8.234,8.234,0,0,1-.63.976c-.256.34-.631.833-1.1,1.444C967.006,399.6,957.755,411.746,956.977,414.692Z" transform="translate(-956.654 -387.416)" fill="#a9b4d1"/>
        </g>
        <path id="Path_583" data-name="Path 583" d="M945.671,471.784c-2.013-1.2-4.651-4.283-4.651-5.606s8.191-7.209,9.094-8.2c0,0,.625,1.652,1.18,1.9s0-2.079,1.319-3.024,6.8-5.165,8.122-7.432,1.145-2.582,1.544-2.141a3.8,3.8,0,0,1,.6,1.449,7.02,7.02,0,0,1,.846-2.645,1.064,1.064,0,0,1,1.735.63,17.157,17.157,0,0,1,0,3.779c-.07,1.008-2.5,2.983-4.3,5.145s-10,11.673-11.524,13S945.671,471.784,945.671,471.784Z" transform="translate(-911.567 -406.025)" fill="#a9b4d1"/>
        <path id="Path_584" data-name="Path 584" d="M1043.424,458.034s-8.193-2.407-10.525-6.274-8.12-11.891-10.613-13.2a23.4,23.4,0,0,0-4.422-1.824,29.078,29.078,0,0,1,4.1-1.24,16.642,16.642,0,0,1,2.734,2.189s-.965-3.064-.4-3.064,2.653-.554,3.859.489,1.49,4.253,1.49,4.253l1-3.428s3.172,2.335,4.964,4.012,5.25,6.106,5.732,10.2A33.046,33.046,0,0,0,1043.424,458.034Z" transform="translate(-1017.865 -398.88)" fill="#d3daed"/>
        <path id="Path_585" data-name="Path 585" d="M956.171,525.444s4.823-4.932,8.762-6,7.693-2.093,9.233,1.554-1.434,5.763-3.122,6.274a5.829,5.829,0,0,1-4.181,0c-1.045-.511-1.126-.4-1.93.383s-2.572,2.316-4.743,1.878S957.86,526.1,956.171,525.444Z" transform="translate(-926.205 -451.774)" fill="#d3daed"/>
        <path id="Path_586" data-name="Path 586" d="M1025.809,515.319s1.206-5.69-2.733-8.973-12.944-5.033-14.793-5.252l.8,2.626s-2.653-.729-2.975-1.532-.965,1.021-.4,3.064,5.145,7.441,8.12,8.681S1025.809,515.319,1025.809,515.319Z" transform="translate(-995.843 -440.847)" fill="#a9b4d1"/>
        <g id="Group_796" data-name="Group 796" transform="translate(13.227 62.833)">
          <path id="Path_587" data-name="Path 587" d="M1022.2,519.716c-.09-.094-9.05-9.537-16.633-11.544l.029-.091c4.017,1.063,8.412,4.042,11.364,6.442a66.074,66.074,0,0,1,5.491,5Z" transform="translate(-1005.565 -508.081)" fill="#a9b4d1"/>
        </g>
        <path id="Path_588" data-name="Path 588" d="M979.979,524.674c-1.245.461-2.488.961-3.79,1.319a14.168,14.168,0,0,1-1.992.416l-.5.063-.246.031-.247.042-.246.042-.245.049c-.163.034-.328.064-.49.1-1.3.29-2.589.661-3.852,1.076-.631.211-1.255.437-1.868.682l-.455.192c-.151.065-.3.137-.446.2-.075.033-.147.07-.218.108l-.215.112c-.074.036-.139.079-.206.12l-.2.124-.2-.241.218-.133c.073-.044.145-.09.22-.127l.224-.116c.075-.039.15-.077.226-.111.153-.069.3-.142.459-.208l.464-.193c.623-.247,1.255-.471,1.892-.681,1.277-.413,2.571-.779,3.891-1.067.164-.039.331-.068.5-.1l.249-.049.252-.042.252-.041.255-.032.5-.06a13.9,13.9,0,0,0,1.953-.4c1.286-.347,2.521-.836,3.776-1.294Z" transform="translate(-934.691 -455.568)" fill="#a9b4d1"/>
        <path id="Path_589" data-name="Path 589" d="M961.866,457.065l-4.758,5.352c-1.59,1.781-3.179,3.562-4.792,5.328-1.639,1.745-3.2,3.538-4.753,5.349q-1.159,1.358-2.289,2.736-.564.689-1.113,1.387c-.18.234-.363.467-.538.7l-.261.355-.245.36-.287-.152.256-.37.266-.359c.179-.238.363-.471.547-.706q.556-.7,1.125-1.387,1.139-1.376,2.31-2.729c1.559-1.8,3.142-3.6,4.791-5.332,1.621-1.756,3.221-3.53,4.822-5.3l4.79-5.328Z" transform="translate(-908.538 -413.052)" fill="#a9b4d1"/>
        <path id="Path_590" data-name="Path 590" d="M1018.391,440.637c1.249.575,2.46,1.205,3.651,1.869s2.353,1.37,3.477,2.125c.564.375,1.112.771,1.653,1.173s1.062.828,1.569,1.266a16.847,16.847,0,0,1,2.712,2.915l.072.1.067.1.133.208.133.208.118.215.469.845a19.394,19.394,0,0,0,1.1,1.6c.789,1.037,1.647,2.033,2.535,3.005s1.813,1.917,2.769,2.834a36.039,36.039,0,0,0,3,2.616l-.212.233a36.333,36.333,0,0,1-3.017-2.655q-1.434-1.39-2.766-2.86c-.887-.981-1.744-1.985-2.534-3.035a19.623,19.623,0,0,1-1.109-1.624l-.468-.853-.114-.21-.129-.2-.129-.2-.064-.1-.071-.1a16.6,16.6,0,0,0-2.659-2.886c-.5-.437-1.019-.857-1.55-1.264s-1.078-.8-1.637-1.174c-1.114-.756-2.27-1.463-3.451-2.133s-2.39-1.3-3.626-1.878Z" transform="translate(-1016.461 -402.764)" fill="#a9b4d1"/>
        <g id="Group_804" data-name="Group 804" transform="translate(29.625 23.629)">
          <g id="Group_797" data-name="Group 797" transform="translate(7.427)">
            <path id="Path_591" data-name="Path 591" d="M979.293,408.647l-.145.074c-.031-.051-2.435-3.948-4.271-6.45.038-.041.076-.082.113-.121C976.8,404.614,979.164,408.437,979.293,408.647Z" transform="translate(-974.876 -402.15)" fill="#a9b4d1"/>
          </g>
          <g id="Group_798" data-name="Group 798" transform="translate(5.567 2.197)">
            <path id="Path_592" data-name="Path 592" d="M984.567,415.092l-.15.063a59.964,59.964,0,0,0-4.121-6.934l.1-.133a34.146,34.146,0,0,1,2.12,3.266C983.646,413.276,984.559,415.073,984.567,415.092Z" transform="translate(-980.296 -408.087)" fill="#a9b4d1"/>
          </g>
          <g id="Group_799" data-name="Group 799" transform="translate(1.205 9.258)">
            <path id="Path_593" data-name="Path 593" d="M995.9,432.8l-.139.083c-.035-.047-2.24-3.084-4.4-5.552.024-.054.049-.109.075-.164C993.575,429.6,995.757,432.6,995.9,432.8Z" transform="translate(-991.363 -427.165)" fill="#a9b4d1"/>
          </g>
          <g id="Group_800" data-name="Group 800" transform="translate(0 13.286)">
            <path id="Path_594" data-name="Path 594" d="M1000.493,442.265l-.132.092c-.029-.033-1.93-2.292-3.62-4.106.01-.067.021-.134.033-.2C998.455,439.847,1000.376,442.127,1000.493,442.265Z" transform="translate(-996.741 -438.049)" fill="#a9b4d1"/>
          </g>
          <g id="Group_801" data-name="Group 801" transform="translate(12.201 5.09)">
            <path id="Path_595" data-name="Path 595" d="M961.376,415.9l-.1.155c-3.039.187-7.174.766-7.235.775l-.026-.15C954.265,416.649,958.366,416.074,961.376,415.9Z" transform="translate(-954.012 -415.904)" fill="#a9b4d1"/>
          </g>
          <g id="Group_802" data-name="Group 802" transform="translate(10.006 8.129)">
            <path id="Path_596" data-name="Path 596" d="M967.086,424.114l-.108.157c-.536.035-1.136.08-1.808.135-2.807.23-5.53.541-5.558.545l-.021-.15C959.861,424.769,963.8,424.321,967.086,424.114Z" transform="translate(-959.592 -424.114)" fill="#a9b4d1"/>
          </g>
          <g id="Group_803" data-name="Group 803" transform="translate(3.272 17.357)">
            <path id="Path_597" data-name="Path 597" d="M984.971,449.051l-.118.159a68.807,68.807,0,0,0-7.521,1.088l-.037-.147A68.7,68.7,0,0,1,984.971,449.051Z" transform="translate(-977.295 -449.051)" fill="#a9b4d1"/>
          </g>
        </g>
        <path id="Path_598" data-name="Path 598" d="M980.956,552.572c-.288.5-.645,1.2-.107,1.743.815.83,6.2,1.454,10.127,1.454s8.249-.762,9.215-1.454a1.244,1.244,0,0,0-.083-1.743s-.426,1.742-9.316,1.742S980.956,552.572,980.956,552.572Z" transform="translate(-961.147 -473.273)" fill="#d3daed"/>
        <g id="Group_807" data-name="Group 807" transform="translate(16.113 88.335)">
          <g id="Group_805" data-name="Group 805" transform="translate(0.074)">
            <path id="Path_599" data-name="Path 599" d="M997.782,577.5a33.808,33.808,0,0,1-5.6.97c-2.742.28-6.021.427-9.433.427-.847,0-1.7-.009-2.56-.028a32.029,32.029,0,0,1-4.711-.568c-.757-.13-1.541-.264-2.312-.366a16.141,16.141,0,0,1-2.061-.367c.048-.169.1-.339.156-.51a15.609,15.609,0,0,0,1.99.355c.782.1,1.572.239,2.335.37a31.586,31.586,0,0,0,4.616.56c7.468.159,14.079-.379,17.42-1.352C997.678,577.157,997.732,577.327,997.782,577.5Z" transform="translate(-971.105 -576.988)" fill="#d3daed"/>
          </g>
          <g id="Group_806" data-name="Group 806" transform="translate(0 4.712)">
            <path id="Path_600" data-name="Path 600" d="M997.173,589.719c-.025.2-.055.4-.091.6a66.238,66.238,0,0,1-6.792,1.955,51.85,51.85,0,0,1-6.079.3c-.349,0-.748.006-1.185.006a73.948,73.948,0,0,1-8.525-.423c-.416-.052-.847-.081-1.264-.108a16.934,16.934,0,0,1-1.69-.169,13.435,13.435,0,0,1-1.374-.3c-.055-.2-.107-.4-.153-.6a13.087,13.087,0,0,0,1.633.383c.532.089,1.088.126,1.627.161.426.028.866.057,1.3.112a86.431,86.431,0,0,0,15.554.129A62.793,62.793,0,0,0,997.173,589.719Z" transform="translate(-970.02 -589.719)" fill="#d3daed"/>
          </g>
        </g>
      </g>
    </g>
  </g>
  <g id="Group_814" data-name="Group 814" transform="translate(58.43 0)">
    <ellipse id="Ellipse_9" data-name="Ellipse 9" cx="25.231" cy="25.231" rx="25.231" ry="25.231" transform="translate(0)" fill="#378aa4"/>
    <g id="Group_813" data-name="Group 813" transform="translate(6.728 8.754)">
      <g id="Group_811" data-name="Group 811" transform="translate(0 10.201)">
        <path id="Path_601" data-name="Path 601" d="M808.906,141.781l20.046,20.05,3.692-9.2,5.987,2.849.683.324L838,151.079l-1.127-4.052.2-.138,9.572-6.608Z" transform="translate(-808.906 -140.281)" fill="#fff"/>
        <path id="Path_602" data-name="Path 602" d="M828.7,146.421l22.344,8.046.013,0,5.414,4.882.683.324-1.314-4.731-1.127-4.052.2-.138Z" transform="translate(-826.751 -144.149)" fill="#a9b4d1"/>
        <path id="Path_603" data-name="Path 603" d="M830.55,170.2l5.987,2.849-5.414-4.882-.013,0Z" transform="translate(-806.812 -157.843)" fill="#323b52"/>
      </g>
      <g id="Group_812" data-name="Group 812" transform="translate(23.768 0)">
        <ellipse id="Ellipse_10" data-name="Ellipse 10" cx="5.787" cy="5.787" rx="5.787" ry="5.787" transform="translate(1.854 13.279) rotate(-99.217)" fill="#ed4f7a"/>
        <path id="Path_604" data-name="Path 604" d="M826.174,128.785h.624v-4.157a3.222,3.222,0,0,0,.591.449,4.094,4.094,0,0,0,.657.337v-.631a3.756,3.756,0,0,1-.915-.623,2.432,2.432,0,0,1-.555-.71h-.4Z" transform="translate(-820.47 -119.479)" fill="#fff"/>
      </g>
    </g>
  </g>
</svg>
