<svg xmlns="http://www.w3.org/2000/svg" width="23.917" height="24" viewBox="0 0 23.917 24">
  <g id="internet_1" data-name="internet 1" transform="translate(-0.041)">
    <path id="Vector" d="M16.587,12.75H7.331a.234.234,0,0,0-.234.24c.028,1.085.1,2.121.213,3.1a.234.234,0,0,0,.29.2,17.784,17.784,0,0,1,8.718,0,.234.234,0,0,0,.29-.2c.112-.98.185-2.017.213-3.1A.234.234,0,0,0,16.587,12.75Z" transform="translate(0.041 0)" fill="#ee2a52"/>
    <path id="Vector-2" data-name="Vector" d="M16.608,7.909a.234.234,0,0,0-.29-.2,17.617,17.617,0,0,1-4.359.543A17.619,17.619,0,0,1,7.6,7.708a.234.234,0,0,0-.29.2c-.112.98-.185,2.017-.213,3.1a.234.234,0,0,0,.234.24h9.256a.234.234,0,0,0,.234-.24C16.793,9.925,16.72,8.889,16.608,7.909Z" transform="translate(0.041 0)" fill="#ee2a52"/>
    <path id="Vector-3" data-name="Vector" d="M16.318,5.931A18.731,18.731,0,0,0,14.511.354a.233.233,0,0,0-.158-.116,12.145,12.145,0,0,0-4.789,0,.233.233,0,0,0-.158.116A18.73,18.73,0,0,0,7.6,5.931a.234.234,0,0,0,.168.267,16.094,16.094,0,0,0,4.191.552A16.092,16.092,0,0,0,16.15,6.2.234.234,0,0,0,16.318,5.931Z" transform="translate(0.041 0)" fill="#ee2a52"/>
    <path id="Vector-4" data-name="Vector" d="M16.947,1.08a.234.234,0,0,0-.314.3l0,.01a23.371,23.371,0,0,1,1.1,3.989.235.235,0,0,0,.32.172,16.1,16.1,0,0,0,2.631-1.376.235.235,0,0,0,.045-.357q-.143-.153-.292-.3A12,12,0,0,0,16.947,1.08Z" transform="translate(0.041 0)" fill="#ee2a52"/>
    <path id="Vector-5" data-name="Vector" d="M18.555,11.25h5.127A.235.235,0,0,0,23.917,11a11.882,11.882,0,0,0-1.927-5.587.235.235,0,0,0-.327-.067,17.564,17.564,0,0,1-2.843,1.523q-.307.13-.618.248a.234.234,0,0,0-.15.249c.148,1.177.239,2.4.27,3.66A.234.234,0,0,0,18.555,11.25Z" transform="translate(0.041 0)" fill="#ee2a52"/>
    <path id="Vector-6" data-name="Vector" d="M7.6,18.069a18.731,18.731,0,0,0,1.807,5.576.233.233,0,0,0,.158.116,12.145,12.145,0,0,0,4.789,0,.233.233,0,0,0,.158-.116,18.73,18.73,0,0,0,1.807-5.576.234.234,0,0,0-.168-.267,16.174,16.174,0,0,0-8.382,0A.234.234,0,0,0,7.6,18.069Z" transform="translate(0.041 0)" fill="#ee2a52"/>
    <path id="Vector-7" data-name="Vector" d="M5.1,17.135q.307-.13.618-.248a.234.234,0,0,0,.15-.249c-.148-1.177-.239-2.4-.27-3.66a.234.234,0,0,0-.234-.229H.235A.235.235,0,0,0,0,13a11.883,11.883,0,0,0,1.927,5.587.236.236,0,0,0,.327.067A17.561,17.561,0,0,1,5.1,17.135Z" transform="translate(0.041 0)" fill="#ee2a52"/>
    <path id="Vector-8" data-name="Vector" d="M20.691,19.825a16.1,16.1,0,0,0-2.631-1.376.235.235,0,0,0-.32.172,23.366,23.366,0,0,1-1.1,3.989l0,.01a.234.234,0,0,0,.314.3,12,12,0,0,0,3.5-2.435q.149-.149.292-.3A.235.235,0,0,0,20.691,19.825Z" transform="translate(0.041 0)" fill="#ee2a52"/>
    <path id="Vector-9" data-name="Vector" d="M18.321,12.979c-.031,1.256-.123,2.484-.27,3.66a.234.234,0,0,0,.15.249q.311.118.618.248a17.571,17.571,0,0,1,2.843,1.523.236.236,0,0,0,.327-.067A11.883,11.883,0,0,0,23.917,13a.235.235,0,0,0-.234-.255H18.555A.234.234,0,0,0,18.321,12.979Z" transform="translate(0.041 0)" fill="#ee2a52"/>
    <path id="Vector-10" data-name="Vector" d="M3.227,4.175A16.1,16.1,0,0,0,5.858,5.551a.235.235,0,0,0,.32-.172,23.366,23.366,0,0,1,1.1-3.989l0-.01a.234.234,0,0,0-.314-.3,12,12,0,0,0-3.5,2.435q-.149.149-.292.3A.235.235,0,0,0,3.227,4.175Z" transform="translate(0.041 0)" fill="#ee2a52"/>
    <path id="Vector-11" data-name="Vector" d="M5.591,11.25a37,37,0,0,1,.275-3.889.234.234,0,0,0-.15-.249q-.311-.118-.618-.248A17.571,17.571,0,0,1,2.255,5.342a.236.236,0,0,0-.327.067A11.883,11.883,0,0,0,0,11a.235.235,0,0,0,.234.255Z" transform="translate(0.041 0)" fill="#ee2a52"/>
    <path id="Vector-12" data-name="Vector" d="M6.971,22.92a.234.234,0,0,0,.314-.3l0-.01a23.371,23.371,0,0,1-1.1-3.989.235.235,0,0,0-.32-.172,16.1,16.1,0,0,0-2.631,1.376.235.235,0,0,0-.045.357q.143.153.292.3A12,12,0,0,0,6.971,22.92Z" transform="translate(0.041 0)" fill="#ee2a52"/>
  </g>
</svg>
