<svg xmlns="http://www.w3.org/2000/svg" width="23.039" height="41.52" viewBox="0 0 23.039 41.52">
  <g id="self-service" transform="translate(-114.063 511.719)">
    <path id="Path_3261" data-name="Path 3261" d="M115.843-511.669a2.757,2.757,0,0,0-1.2.779c-.633.722-.592-.568-.568,15.7l.024,14.564.252.446a2.742,2.742,0,0,0,1.314,1.136,11.022,11.022,0,0,0,1.964.146l1.663.032,1.46,1.947,1.46,1.947.041,2.085c.041,2.272.081,2.434.536,2.6.122.049,2.856.081,6.937.081,7.229,0,7.075.008,7.294-.4.057-.105.081-2.669.081-7.659,0-8.6.057-7.968-.73-8.755a2.6,2.6,0,0,0-.682-.519l-.211-.049v-3.57c0-3.8-.008-3.911-.4-4.122a.93.93,0,0,0-.957.114l-.227.195-.041,3.676c-.041,3.708-.073,4.081-.325,3.489a2.73,2.73,0,0,0-1.323-1.136,2.511,2.511,0,0,0-1.631-.049l-.316.114-.373-.4a3.127,3.127,0,0,0-.852-.617,1.822,1.822,0,0,0-1.152-.179l-.673.032-.024-4.057-.024-4.065-.219-.414a2.481,2.481,0,0,0-2.962-1.209,2.357,2.357,0,0,0-1.639,1.988c-.057.316-.089,2.158-.089,4.641,0,3.919-.008,4.122-.146,4.122a2.752,2.752,0,0,0-1.347.82c-.341.381-.406.544-1.363,3.383s-1,3.01-1,3.643v.673h-1c-1.112,0-1.469-.1-1.631-.454-.122-.276-.13-28.528-.008-28.763.227-.414-.081-.4,9.055-.4H133.3l.276.276.276.276v7.968l.227.252a.652.652,0,0,0,.519.26.841.841,0,0,0,.8-.479c.049-.122.081-1.826.081-4.122,0-4.39-.008-4.438-.568-5.144a2.143,2.143,0,0,0-.787-.633l-.471-.235-8.8-.016C120.006-511.726,115.957-511.7,115.843-511.669Zm9.469,13.591.227.195.041,5.274.041,5.274.195.211a.811.811,0,0,0,.957.179c.243-.122.333-.284.5-.909a.735.735,0,0,1,.779-.6c.649,0,.852.325.852,1.379,0,.714.008.755.235.982a.877.877,0,0,0,.99.154,1.093,1.093,0,0,0,.4-.73.815.815,0,0,1,1.03-.763c.511.13.617.381.673,1.533.032.909.057,1.031.227,1.193a.825.825,0,0,0,1.12-.041,1.4,1.4,0,0,0,.252-.568.828.828,0,0,1,1.412-.552l.235.235v13.81h-11.6v-3.643l-1.793-2.377c-.99-1.306-1.866-2.523-1.947-2.7a1.775,1.775,0,0,1-.154-.6c0-.154.422-1.55.933-3.091.836-2.507,1.071-3.083,1.282-3.083.024,0,.057.852.073,1.9.024,1.777.032,1.915.195,2.126a.766.766,0,0,0,1.217.073l.195-.195v-6.962c0-4.519.032-7.067.081-7.262A.838.838,0,0,1,125.312-498.078Z" transform="translate(0 0)"/>
    <path id="Path_3262" data-name="Path 3262" d="M183.484-445.556a7.173,7.173,0,0,0-3.659,1.9c-.268.284-.325.389-.325.665a.608.608,0,0,0,.268.568c.422.373.714.325,1.331-.211a5.789,5.789,0,0,1,7.521-.049c.714.592,1.006.641,1.4.26a.815.815,0,0,0,.016-1.144,7.309,7.309,0,0,0-3.237-1.874A9.706,9.706,0,0,0,183.484-445.556Z" transform="translate(-60.127 -60.709)"/>
    <path id="Path_3263" data-name="Path 3263" d="M210.028-405.832a3.962,3.962,0,0,0-1.663.892c-.325.316-.365.4-.365.706a.739.739,0,0,0,.779.787.986.986,0,0,0,.706-.316,2.515,2.515,0,0,1,3.286.081.813.813,0,0,0,1.16,0c.357-.357.325-.722-.089-1.177A4.078,4.078,0,0,0,210.028-405.832Z" transform="translate(-86.315 -97.179)"/>
    <path id="Path_3264" data-name="Path 3264" d="M358.251-354.765a.788.788,0,0,0,1.039,1.177.777.777,0,0,0-.462-1.412A.673.673,0,0,0,358.251-354.765Z" transform="translate(-224.16 -144.003)"/>
  </g>
</svg>
